<svg width="230" height="86" viewBox="0 0 230 86" fill="none" xmlns="http://www.w3.org/2000/svg">
<g filter="url(#filter0_d_102_2272)">
<rect x="7" y="3" width="216" height="72" rx="36" fill="#303B59"/>
<path d="M41.112 45.668L34.536 35.756V48.764H31.656V30.908H34.824L41.112 40.868L47.424 30.908H50.592V48.764H47.712V35.756L41.112 45.668ZM59.5628 46.604C61.4588 46.604 63.0668 44.852 63.0908 42.548C63.0668 40.244 61.4588 38.492 59.5628 38.492C57.5468 38.492 56.1788 40.1 56.1788 42.548C56.1788 44.972 57.5468 46.604 59.5628 46.604ZM53.2988 42.548C53.2988 38.804 55.7948 36.164 59.3228 36.164C60.6908 36.164 62.0828 36.788 63.0908 38.132V36.092H65.9708V48.74H63.0908V46.94C62.0828 48.308 60.6908 48.932 59.3228 48.932C55.7948 48.932 53.2988 46.292 53.2988 42.548ZM71.8251 30.74V41.3L76.3851 36.164H80.2491L75.2811 41.708L80.0811 48.812H76.6251L73.1931 43.796L71.8251 45.476V48.812H68.9451V30.74H71.8251ZM90.3848 41.348C90.1688 39.932 89.2328 38.372 87.1928 38.372C85.3928 38.372 84.0248 39.716 83.7368 41.348H90.3848ZM81.0488 42.428C81.0488 38.66 83.5688 36.02 87.1688 36.02C91.1528 36.02 92.4008 39.284 92.4728 39.452C93.2408 41.18 93.0008 43.148 93.0008 43.46H83.7368C84.0248 45.236 85.5848 46.436 87.1928 46.436C89.4488 46.436 90.1448 45.116 90.2168 45.02L92.5448 46.004C92.5448 46.004 91.3688 48.812 87.1688 48.812C83.5688 48.812 81.0488 46.196 81.0488 42.428ZM107.141 46.604C109.037 46.604 110.645 44.852 110.669 42.548C110.645 40.244 109.037 38.492 107.141 38.492C105.125 38.492 103.757 40.1 103.757 42.548C103.757 44.972 105.125 46.604 107.141 46.604ZM100.877 42.548C100.877 38.804 103.373 36.164 106.901 36.164C108.269 36.164 109.661 36.788 110.669 38.132V36.092H113.549V48.74H110.669V46.94C109.661 48.308 108.269 48.932 106.901 48.932C103.373 48.932 100.877 46.292 100.877 42.548ZM129.681 40.292C131.577 40.292 132.801 38.924 132.801 36.86C132.801 34.772 131.553 33.404 129.657 33.404H125.169V40.292H129.681ZM122.289 48.764V30.908H129.777C133.233 30.908 135.681 33.356 135.681 36.86C135.681 40.34 133.233 42.788 129.777 42.788H125.169V48.764H122.289ZM142.975 46.46C144.967 46.46 146.263 44.876 146.263 42.428C146.263 40.004 144.967 38.372 142.975 38.372C140.983 38.372 139.687 40.004 139.687 42.428C139.687 44.876 140.983 46.46 142.975 46.46ZM136.807 42.428C136.807 38.66 139.351 36.02 142.975 36.02C146.599 36.02 149.143 38.66 149.143 42.428C149.143 46.196 146.599 48.836 142.975 48.836C139.351 48.836 136.807 46.196 136.807 42.428ZM152.814 45.092C153.558 46.076 154.734 46.58 155.646 46.58C156.894 46.58 157.806 45.932 157.806 44.972C157.806 43.196 151.158 43.796 151.158 39.692C151.158 37.484 153.078 35.924 155.838 35.924C157.302 35.924 159.054 36.644 160.038 37.868L158.166 39.548C157.542 38.708 156.582 38.3 155.838 38.3C154.782 38.3 154.038 38.828 154.038 39.62C154.038 41.492 160.686 40.796 160.686 44.924C160.686 47.276 158.598 48.932 155.646 48.932C154.014 48.932 152.07 48.14 150.894 46.748L152.814 45.092ZM170.443 48.14C169.843 48.404 169.315 48.716 167.923 48.716C165.691 48.716 164.131 47.06 164.131 44.684V38.54H161.899V36.212H164.131V32.468H167.011V36.212H170.203V38.54H167.011V44.684C167.011 45.548 167.491 46.196 168.187 46.22C168.811 46.268 169.483 45.884 169.531 45.86L170.443 48.14Z" fill="white"/>
<path d="M194.393 31.2139H187.087C186.534 31.2139 186.003 31.4338 185.611 31.8252C185.22 32.2167 185 32.7476 185 33.3012V47.9126C185 48.4662 185.22 48.9971 185.611 49.3885C186.003 49.78 186.534 49.9999 187.087 49.9999H201.699C202.252 49.9999 202.783 49.78 203.175 49.3885C203.566 48.9971 203.786 48.4662 203.786 47.9126V40.6069" stroke="#FF8C79" stroke-width="2.08734" stroke-linecap="round" stroke-linejoin="round"/>
<path d="M202.22 29.6485C202.636 29.2333 203.199 29 203.786 29C204.373 29 204.936 29.2333 205.351 29.6485C205.767 30.0637 206 30.6268 206 31.214C206 31.8011 205.767 32.3643 205.351 32.7795L195.437 42.6943L191.262 43.738L192.306 39.5633L202.22 29.6485Z" stroke="#FF8C79" stroke-width="2.08734" stroke-linecap="round" stroke-linejoin="round"/>
</g>
<defs>
<filter id="filter0_d_102_2272" x="0" y="0" width="230" height="86" filterUnits="userSpaceOnUse" color-interpolation-filters="sRGB">
<feFlood flood-opacity="0" result="BackgroundImageFix"/>
<feColorMatrix in="SourceAlpha" type="matrix" values="0 0 0 0 0 0 0 0 0 0 0 0 0 0 0 0 0 0 127 0" result="hardAlpha"/>
<feOffset dy="4"/>
<feGaussianBlur stdDeviation="3.5"/>
<feComposite in2="hardAlpha" operator="out"/>
<feColorMatrix type="matrix" values="0 0 0 0 0 0 0 0 0 0 0 0 0 0 0 0 0 0 0.18 0"/>
<feBlend mode="normal" in2="BackgroundImageFix" result="effect1_dropShadow_102_2272"/>
<feBlend mode="normal" in="SourceGraphic" in2="effect1_dropShadow_102_2272" result="shape"/>
</filter>
</defs>
</svg>
