<svg width="1459" height="1015" viewBox="0 0 1459 1015" fill="none" xmlns="http://www.w3.org/2000/svg">
<rect width="1459" height="1015" rx="12" fill="white"/>
<rect x="746" y="885" width="656" height="62" rx="12" fill="#FF7660"/>
<path d="M1058.05 916.792C1059.94 916.792 1061.17 915.424 1061.17 913.36C1061.17 911.272 1059.92 909.904 1058.02 909.904H1053.54V916.792H1058.05ZM1050.66 925.264V907.408H1058.14C1061.6 907.408 1064.05 909.856 1064.05 913.36C1064.05 916.84 1061.6 919.288 1058.14 919.288H1053.54V925.264H1050.66ZM1071.34 922.96C1073.33 922.96 1074.63 921.376 1074.63 918.928C1074.63 916.504 1073.33 914.872 1071.34 914.872C1069.35 914.872 1068.05 916.504 1068.05 918.928C1068.05 921.376 1069.35 922.96 1071.34 922.96ZM1065.17 918.928C1065.17 915.16 1067.72 912.52 1071.34 912.52C1074.97 912.52 1077.51 915.16 1077.51 918.928C1077.51 922.696 1074.97 925.336 1071.34 925.336C1067.72 925.336 1065.17 922.696 1065.17 918.928ZM1081.18 921.592C1081.93 922.576 1083.1 923.08 1084.01 923.08C1085.26 923.08 1086.17 922.432 1086.17 921.472C1086.17 919.696 1079.53 920.296 1079.53 916.192C1079.53 913.984 1081.45 912.424 1084.21 912.424C1085.67 912.424 1087.42 913.144 1088.41 914.368L1086.53 916.048C1085.91 915.208 1084.95 914.8 1084.21 914.8C1083.15 914.8 1082.41 915.328 1082.41 916.12C1082.41 917.992 1089.05 917.296 1089.05 921.424C1089.05 923.776 1086.97 925.432 1084.01 925.432C1082.38 925.432 1080.44 924.64 1079.26 923.248L1081.18 921.592ZM1098.81 924.64C1098.21 924.904 1097.68 925.216 1096.29 925.216C1094.06 925.216 1092.5 923.56 1092.5 921.184V915.04H1090.27V912.712H1092.5V908.968H1095.38V912.712H1098.57V915.04H1095.38V921.184C1095.38 922.048 1095.86 922.696 1096.55 922.72C1097.18 922.768 1097.85 922.384 1097.9 922.36L1098.81 924.64Z" fill="white"/>
<path d="M1239.26 861.64L1233.78 853.38V864.22H1231.38V849.34H1234.02L1239.26 857.64L1244.52 849.34H1247.16V864.22H1244.76V853.38L1239.26 861.64ZM1254.64 862.42C1256.22 862.42 1257.56 860.96 1257.58 859.04C1257.56 857.12 1256.22 855.66 1254.64 855.66C1252.96 855.66 1251.82 857 1251.82 859.04C1251.82 861.06 1252.96 862.42 1254.64 862.42ZM1249.42 859.04C1249.42 855.92 1251.5 853.72 1254.44 853.72C1255.58 853.72 1256.74 854.24 1257.58 855.36V853.66H1259.98V864.2H1257.58V862.7C1256.74 863.84 1255.58 864.36 1254.44 864.36C1251.5 864.36 1249.42 862.16 1249.42 859.04ZM1264.85 849.2V858L1268.65 853.72H1271.87L1267.73 858.34L1271.73 864.26H1268.85L1265.99 860.08L1264.85 861.48V864.26H1262.45V849.2H1264.85ZM1280.32 858.04C1280.14 856.86 1279.36 855.56 1277.66 855.56C1276.16 855.56 1275.02 856.68 1274.78 858.04H1280.32ZM1272.54 858.94C1272.54 855.8 1274.64 853.6 1277.64 853.6C1280.96 853.6 1282 856.32 1282.06 856.46C1282.7 857.9 1282.5 859.54 1282.5 859.8H1274.78C1275.02 861.28 1276.32 862.28 1277.66 862.28C1279.54 862.28 1280.12 861.18 1280.18 861.1L1282.12 861.92C1282.12 861.92 1281.14 864.26 1277.64 864.26C1274.64 864.26 1272.54 862.08 1272.54 858.94ZM1298.18 849.34L1304.28 864.22H1301.68L1300.06 860.28H1293.44L1291.8 864.22H1289.2L1295.4 849.34H1298.18ZM1294.3 858.2H1299.22L1296.78 852.26L1294.3 858.2ZM1306.54 849.34H1308.94V864.22H1306.54V849.34ZM1318 860.34C1318.94 861.46 1320.34 862.26 1321.56 862.26C1323.38 862.26 1324.66 861.3 1324.66 859.92C1324.66 857 1316.7 858.54 1316.7 853.36C1316.7 850.94 1318.8 849.24 1321.76 849.24C1323.5 849.24 1325.34 850.16 1326.44 851.5L1324.68 852.9C1323.92 851.96 1322.8 851.3 1321.76 851.3C1320.2 851.3 1319.1 852.16 1319.1 853.36C1319.1 856.34 1327.06 855.04 1327.06 859.92C1327.06 862.5 1324.78 864.32 1321.56 864.32C1319.6 864.32 1317.48 863.28 1316.22 861.76L1318 860.34ZM1336.69 858.72C1336.69 856.92 1335.81 855.74 1334.49 855.74C1332.97 855.74 1331.83 857.14 1331.83 858.88V864.26H1329.43V849.2H1331.83V855.16C1332.53 854.2 1333.69 853.78 1334.51 853.78C1337.19 853.78 1339.09 855.68 1339.09 858.4V864.26H1336.69V858.72ZM1346.14 862.3C1347.8 862.3 1348.88 860.98 1348.88 858.94C1348.88 856.92 1347.8 855.56 1346.14 855.56C1344.48 855.56 1343.4 856.92 1343.4 858.94C1343.4 860.98 1344.48 862.3 1346.14 862.3ZM1341 858.94C1341 855.8 1343.12 853.6 1346.14 853.6C1349.16 853.6 1351.28 855.8 1351.28 858.94C1351.28 862.08 1349.16 864.28 1346.14 864.28C1343.12 864.28 1341 862.08 1341 858.94ZM1355.34 855.52C1355.92 854.38 1357.24 853.58 1358.54 853.58V855.72C1356.6 855.72 1355.34 857.5 1355.34 859.02V864.2H1352.96V853.62H1355.34V855.52ZM1366.86 863.7C1366.36 863.92 1365.92 864.18 1364.76 864.18C1362.9 864.18 1361.6 862.8 1361.6 860.82V855.7H1359.74V853.76H1361.6V850.64H1364V853.76H1366.66V855.7H1364V860.82C1364 861.54 1364.4 862.08 1364.98 862.1C1365.5 862.14 1366.06 861.82 1366.1 861.8L1366.86 863.7ZM1369.79 861.16C1370.41 861.98 1371.39 862.4 1372.15 862.4C1373.19 862.4 1373.95 861.86 1373.95 861.06C1373.95 859.58 1368.41 860.08 1368.41 856.66C1368.41 854.82 1370.01 853.52 1372.31 853.52C1373.53 853.52 1374.99 854.12 1375.81 855.14L1374.25 856.54C1373.73 855.84 1372.93 855.5 1372.31 855.5C1371.43 855.5 1370.81 855.94 1370.81 856.6C1370.81 858.16 1376.35 857.58 1376.35 861.02C1376.35 862.98 1374.61 864.36 1372.15 864.36C1370.79 864.36 1369.17 863.7 1368.19 862.54L1369.79 861.16ZM1381.91 865.4H1401.91V845.4H1381.91V865.4Z" fill="#FF6249"/>
<rect x="1185" y="847" width="20" height="20" rx="3" fill="#FAFCFE" stroke="#E6E8EA" stroke-width="2"/>
<path d="M752.786 741.844C754.208 741.844 755.126 740.818 755.126 739.27C755.126 737.704 754.19 736.678 752.768 736.678H749.402V741.844H752.786ZM747.242 748.198V734.806H752.858C755.45 734.806 757.286 736.642 757.286 739.27C757.286 741.88 755.45 743.716 752.858 743.716H749.402V748.198H747.242ZM762.828 746.578C764.25 746.578 765.456 745.264 765.474 743.536C765.456 741.808 764.25 740.494 762.828 740.494C761.316 740.494 760.29 741.7 760.29 743.536C760.29 745.354 761.316 746.578 762.828 746.578ZM758.13 743.536C758.13 740.728 760.002 738.748 762.648 738.748C763.674 738.748 764.718 739.216 765.474 740.224V738.694H767.634V748.18H765.474V746.83C764.718 747.856 763.674 748.324 762.648 748.324C760.002 748.324 758.13 746.344 758.13 743.536ZM774.69 746.488C776.22 746.488 777.228 745.282 777.228 743.428C777.228 741.592 776.22 740.386 774.69 740.386C773.214 740.386 772.008 741.736 772.008 743.428C772.008 745.12 773.214 746.488 774.69 746.488ZM769.848 752.248V738.622H772.008V740.116C772.782 738.982 774.222 738.622 774.852 738.622C777.516 738.622 779.388 740.62 779.388 743.428C779.388 746.254 777.516 748.252 774.852 748.252C774.204 748.252 772.782 747.928 772.008 746.74V752.248H769.848ZM787.755 742.636C787.593 741.574 786.891 740.404 785.361 740.404C784.011 740.404 782.985 741.412 782.769 742.636H787.755ZM780.753 743.446C780.753 740.62 782.643 738.64 785.343 738.64C788.331 738.64 789.267 741.088 789.321 741.214C789.897 742.51 789.717 743.986 789.717 744.22H782.769C782.985 745.552 784.155 746.452 785.361 746.452C787.053 746.452 787.575 745.462 787.629 745.39L789.375 746.128C789.375 746.128 788.493 748.234 785.343 748.234C782.643 748.234 780.753 746.272 780.753 743.446ZM793.518 740.368C794.04 739.342 795.228 738.622 796.398 738.622V740.548C794.652 740.548 793.518 742.15 793.518 743.518V748.18H791.376V738.658H793.518V740.368Z" fill="#55575B"/>
<path d="M942.754 787.706C943.6 788.714 944.86 789.434 945.958 789.434C947.596 789.434 948.748 788.57 948.748 787.328C948.748 784.7 941.584 786.086 941.584 781.424C941.584 779.246 943.474 777.716 946.138 777.716C947.704 777.716 949.36 778.544 950.35 779.75L948.766 781.01C948.082 780.164 947.074 779.57 946.138 779.57C944.734 779.57 943.744 780.344 943.744 781.424C943.744 784.106 950.908 782.936 950.908 787.328C950.908 789.65 948.856 791.288 945.958 791.288C944.194 791.288 942.286 790.352 941.152 788.984L942.754 787.706ZM957.038 789.47C958.532 789.47 959.504 788.282 959.504 786.446C959.504 784.628 958.532 783.404 957.038 783.404C955.544 783.404 954.572 784.628 954.572 786.446C954.572 788.282 955.544 789.47 957.038 789.47ZM952.412 786.446C952.412 783.62 954.32 781.64 957.038 781.64C959.756 781.64 961.664 783.62 961.664 786.446C961.664 789.272 959.756 791.252 957.038 791.252C954.32 791.252 952.412 789.272 952.412 786.446ZM975.703 785.924C975.703 784.484 974.911 783.458 973.777 783.458C972.553 783.458 971.707 784.556 971.707 785.852V791.18H969.547V785.924C969.547 784.484 968.773 783.458 967.657 783.458C966.415 783.458 965.551 784.592 965.551 786.014V791.18H963.391V781.694H965.551V783.26C966.073 782.342 967.081 781.694 967.963 781.694C969.133 781.694 970.303 782.468 970.807 783.584C971.437 782.468 972.697 781.694 973.867 781.694C976.207 781.694 977.863 783.422 977.863 785.87V791.18H975.703V785.924ZM986.642 785.636C986.48 784.574 985.778 783.404 984.248 783.404C982.898 783.404 981.872 784.412 981.656 785.636H986.642ZM979.64 786.446C979.64 783.62 981.53 781.64 984.23 781.64C987.218 781.64 988.154 784.088 988.208 784.214C988.784 785.51 988.604 786.986 988.604 787.22H981.656C981.872 788.552 983.042 789.452 984.248 789.452C985.94 789.452 986.462 788.462 986.516 788.39L988.262 789.128C988.262 789.128 987.38 791.234 984.23 791.234C981.53 791.234 979.64 789.272 979.64 786.446ZM994.743 789.47C996.237 789.47 997.209 788.282 997.209 786.446C997.209 784.628 996.237 783.404 994.743 783.404C993.249 783.404 992.277 784.628 992.277 786.446C992.277 788.282 993.249 789.47 994.743 789.47ZM990.117 786.446C990.117 783.62 992.025 781.64 994.743 781.64C997.461 781.64 999.369 783.62 999.369 786.446C999.369 789.272 997.461 791.252 994.743 791.252C992.025 791.252 990.117 789.272 990.117 786.446ZM1007.65 786.05C1007.65 784.43 1006.86 783.458 1005.43 783.458C1004.14 783.458 1003.09 784.502 1003.13 786.05V791.18H1000.97V781.694H1003.13V783.242C1003.67 782.342 1004.68 781.694 1005.7 781.694C1007.58 781.694 1009.81 782.702 1009.81 785.996V791.18H1007.65V786.05ZM1018.42 785.636C1018.26 784.574 1017.56 783.404 1016.03 783.404C1014.68 783.404 1013.65 784.412 1013.44 785.636H1018.42ZM1011.42 786.446C1011.42 783.62 1013.31 781.64 1016.01 781.64C1019 781.64 1019.94 784.088 1019.99 784.214C1020.57 785.51 1020.39 786.986 1020.39 787.22H1013.44C1013.65 788.552 1014.82 789.452 1016.03 789.452C1017.72 789.452 1018.24 788.462 1018.3 788.39L1020.04 789.128C1020.04 789.128 1019.16 791.234 1016.01 791.234C1013.31 791.234 1011.42 789.272 1011.42 786.446ZM1036.05 777.806V779.678H1028.69V783.368H1035.11V785.24H1028.69V789.326H1036.05V791.198H1026.53V777.806H1036.05ZM1037.92 777.68H1040.08V791.234H1037.92V777.68ZM1043.4 788.444C1043.95 789.182 1044.84 789.56 1045.52 789.56C1046.46 789.56 1047.14 789.074 1047.14 788.354C1047.14 787.022 1042.15 787.472 1042.15 784.394C1042.15 782.738 1043.59 781.568 1045.66 781.568C1046.76 781.568 1048.08 782.108 1048.81 783.026L1047.41 784.286C1046.94 783.656 1046.22 783.35 1045.66 783.35C1044.87 783.35 1044.31 783.746 1044.31 784.34C1044.31 785.744 1049.3 785.222 1049.3 788.318C1049.3 790.082 1047.73 791.324 1045.52 791.324C1044.3 791.324 1042.84 790.73 1041.96 789.686L1043.4 788.444ZM1057.8 785.636C1057.64 784.574 1056.93 783.404 1055.4 783.404C1054.05 783.404 1053.03 784.412 1052.81 785.636H1057.8ZM1050.8 786.446C1050.8 783.62 1052.69 781.64 1055.39 781.64C1058.37 781.64 1059.31 784.088 1059.36 784.214C1059.94 785.51 1059.76 786.986 1059.76 787.22H1052.81C1053.03 788.552 1054.2 789.452 1055.4 789.452C1057.1 789.452 1057.62 788.462 1057.67 788.39L1059.42 789.128C1059.42 789.128 1058.54 791.234 1055.39 791.234C1052.69 791.234 1050.8 789.272 1050.8 786.446ZM1063.86 776.906L1062.51 781.208H1060.93L1061.67 776.906H1063.86ZM1067.64 788.444C1068.19 789.182 1069.08 789.56 1069.76 789.56C1070.7 789.56 1071.38 789.074 1071.38 788.354C1071.38 787.022 1066.39 787.472 1066.39 784.394C1066.39 782.738 1067.83 781.568 1069.9 781.568C1071 781.568 1072.32 782.108 1073.05 783.026L1071.65 784.286C1071.18 783.656 1070.46 783.35 1069.9 783.35C1069.11 783.35 1068.55 783.746 1068.55 784.34C1068.55 785.744 1073.54 785.222 1073.54 788.318C1073.54 790.082 1071.97 791.324 1069.76 791.324C1068.54 791.324 1067.08 790.73 1066.2 789.686L1067.64 788.444ZM1085.34 784.844C1086.76 784.844 1087.68 783.818 1087.68 782.27C1087.68 780.704 1086.74 779.678 1085.32 779.678H1081.95V784.844H1085.34ZM1079.79 791.198V777.806H1085.41C1088 777.806 1089.84 779.642 1089.84 782.27C1089.84 784.88 1088 786.716 1085.41 786.716H1081.95V791.198H1079.79ZM1095.38 789.578C1096.8 789.578 1098.01 788.264 1098.03 786.536C1098.01 784.808 1096.8 783.494 1095.38 783.494C1093.87 783.494 1092.84 784.7 1092.84 786.536C1092.84 788.354 1093.87 789.578 1095.38 789.578ZM1090.68 786.536C1090.68 783.728 1092.55 781.748 1095.2 781.748C1096.23 781.748 1097.27 782.216 1098.03 783.224V781.694H1100.19V791.18H1098.03V789.83C1097.27 790.856 1096.23 791.324 1095.2 791.324C1092.55 791.324 1090.68 789.344 1090.68 786.536ZM1107.24 789.488C1108.77 789.488 1109.78 788.282 1109.78 786.428C1109.78 784.592 1108.77 783.386 1107.24 783.386C1105.76 783.386 1104.56 784.736 1104.56 786.428C1104.56 788.12 1105.76 789.488 1107.24 789.488ZM1102.4 795.248V781.622H1104.56V783.116C1105.33 781.982 1106.77 781.622 1107.4 781.622C1110.07 781.622 1111.94 783.62 1111.94 786.428C1111.94 789.254 1110.07 791.252 1107.4 791.252C1106.75 791.252 1105.33 790.928 1104.56 789.74V795.248H1102.4ZM1120.31 785.636C1120.14 784.574 1119.44 783.404 1117.91 783.404C1116.56 783.404 1115.54 784.412 1115.32 785.636H1120.31ZM1113.3 786.446C1113.3 783.62 1115.19 781.64 1117.89 781.64C1120.88 781.64 1121.82 784.088 1121.87 784.214C1122.45 785.51 1122.27 786.986 1122.27 787.22H1115.32C1115.54 788.552 1116.71 789.452 1117.91 789.452C1119.6 789.452 1120.13 788.462 1120.18 788.39L1121.93 789.128C1121.93 789.128 1121.04 791.234 1117.89 791.234C1115.19 791.234 1113.3 789.272 1113.3 786.446ZM1126.07 783.368C1126.59 782.342 1127.78 781.622 1128.95 781.622V783.548C1127.2 783.548 1126.07 785.15 1126.07 786.518V791.18H1123.93V781.658H1126.07V783.368Z" fill="#55575B"/>
<circle cx="915.5" cy="785.5" r="11.5" fill="#FAFCFE" stroke="#E6E8EA" stroke-width="2"/>
<path d="M791.334 788.876L786.402 781.442V791.198H784.242V777.806H786.618L791.334 785.276L796.068 777.806H798.444V791.198H796.284V781.442L791.334 788.876ZM804.384 795.248H802.026L804.06 790.37L800.172 781.64H802.548L805.176 788.012L807.732 781.64H810.09L806.49 790.172L804.384 795.248ZM821.725 784.844C823.147 784.844 824.065 783.818 824.065 782.27C824.065 780.704 823.129 779.678 821.707 779.678H818.341V784.844H821.725ZM816.181 791.198V777.806H821.797C824.389 777.806 826.225 779.642 826.225 782.27C826.225 784.88 824.389 786.716 821.797 786.716H818.341V791.198H816.181ZM831.768 789.578C833.19 789.578 834.396 788.264 834.414 786.536C834.396 784.808 833.19 783.494 831.768 783.494C830.256 783.494 829.23 784.7 829.23 786.536C829.23 788.354 830.256 789.578 831.768 789.578ZM827.07 786.536C827.07 783.728 828.942 781.748 831.588 781.748C832.614 781.748 833.658 782.216 834.414 783.224V781.694H836.574V791.18H834.414V789.83C833.658 790.856 832.614 791.324 831.588 791.324C828.942 791.324 827.07 789.344 827.07 786.536ZM843.629 789.488C845.159 789.488 846.167 788.282 846.167 786.428C846.167 784.592 845.159 783.386 843.629 783.386C842.153 783.386 840.947 784.736 840.947 786.428C840.947 788.12 842.153 789.488 843.629 789.488ZM838.787 795.248V781.622H840.947V783.116C841.721 781.982 843.161 781.622 843.791 781.622C846.455 781.622 848.327 783.62 848.327 786.428C848.327 789.254 846.455 791.252 843.791 791.252C843.143 791.252 841.721 790.928 840.947 789.74V795.248H838.787ZM856.695 785.636C856.533 784.574 855.831 783.404 854.301 783.404C852.951 783.404 851.925 784.412 851.709 785.636H856.695ZM849.693 786.446C849.693 783.62 851.583 781.64 854.283 781.64C857.271 781.64 858.207 784.088 858.261 784.214C858.837 785.51 858.657 786.986 858.657 787.22H851.709C851.925 788.552 853.095 789.452 854.301 789.452C855.993 789.452 856.515 788.462 856.569 788.39L858.315 789.128C858.315 789.128 857.433 791.234 854.283 791.234C851.583 791.234 849.693 789.272 849.693 786.446ZM862.458 783.368C862.98 782.342 864.168 781.622 865.338 781.622V783.548C863.592 783.548 862.458 785.15 862.458 786.518V791.18H860.316V781.658H862.458V783.368Z" fill="#55575B"/>
<circle cx="758.5" cy="785.5" r="11.5" fill="#FAFCFE" stroke="#E6E8EA" stroke-width="2"/>
<path d="M756.566 613.806V615.678H749.384V619.548H755.432V621.402H749.384V627.198H747.224V613.806H756.566ZM758.406 617.622H760.566V627.234H758.406V617.622ZM758.316 614.382C758.316 613.698 758.802 613.212 759.486 613.212C760.17 613.212 760.674 613.698 760.674 614.382C760.674 615.084 760.17 615.57 759.486 615.57C758.802 615.57 758.316 615.084 758.316 614.382ZM762.775 613.68H764.935V627.234H762.775V613.68ZM773.412 621.636C773.25 620.574 772.548 619.404 771.018 619.404C769.668 619.404 768.642 620.412 768.426 621.636H773.412ZM766.41 622.446C766.41 619.62 768.3 617.64 771 617.64C773.988 617.64 774.924 620.088 774.978 620.214C775.554 621.51 775.374 622.986 775.374 623.22H768.426C768.642 624.552 769.812 625.452 771.018 625.452C772.71 625.452 773.232 624.462 773.286 624.39L775.032 625.128C775.032 625.128 774.15 627.234 771 627.234C768.3 627.234 766.41 625.272 766.41 622.446ZM781.461 613.68H783.621V627.234H781.461V613.68ZM785.951 617.622H788.111V627.234H785.951V617.622ZM785.861 614.382C785.861 613.698 786.347 613.212 787.031 613.212C787.715 613.212 788.219 613.698 788.219 614.382C788.219 615.084 787.715 615.57 787.031 615.57C786.347 615.57 785.861 615.084 785.861 614.382ZM797.16 622.05C797.16 620.43 796.368 619.458 794.946 619.458C793.65 619.458 792.606 620.502 792.642 622.05V627.18H790.482V617.694H792.642V619.242C793.182 618.342 794.19 617.694 795.216 617.694C797.088 617.694 799.32 618.702 799.32 621.996V627.18H797.16V622.05ZM803.525 613.68V621.6L806.945 617.748H809.843L806.117 621.906L809.717 627.234H807.125L804.551 623.472L803.525 624.732V627.234H801.365V613.68H803.525Z" fill="#55575B"/>
<rect x="746.5" y="644.5" width="655" height="69" rx="11.5" fill="#FAFCFE"/>
<rect x="746.5" y="644.5" width="655" height="69" rx="11.5" stroke="#E6E8EA"/>
<path d="M793.726 684.211C790.662 684.211 788.785 682.104 788.785 678.868C788.785 675.669 790.7 673.467 793.592 673.467C795.967 673.467 798.207 674.942 798.207 678.695V679.423H790.815C790.873 681.395 792.031 682.525 793.745 682.525C794.913 682.525 795.66 682.027 796.005 681.395H798.073C797.614 683.081 796.005 684.211 793.726 684.211ZM790.834 677.891H796.197C796.197 676.301 795.182 675.152 793.611 675.152C791.974 675.152 790.911 676.416 790.834 677.891ZM801.616 673.601L803.895 677.642L806.193 673.601H808.434L805.197 678.791L808.453 684H806.232L803.895 680.112L801.578 684H799.337L802.555 678.791L799.356 673.601H801.616ZM814.39 678.714C814.371 682.334 813.356 685.341 811.556 687.907H809.679C811 685.992 812.264 682.142 812.264 678.714C812.264 675.306 811 671.437 809.679 669.541H811.556C813.356 672.107 814.371 675.114 814.39 678.714ZM824.138 677.833V684H822.088V670.135H824.099V675.306H824.233C824.731 674.176 825.689 673.467 827.317 673.467C829.462 673.467 830.879 674.788 830.879 677.393V684H828.83V677.642C828.83 676.11 828.006 675.229 826.627 675.229C825.191 675.229 824.138 676.167 824.138 677.833ZM838.213 673.601V675.229H836.088V680.936C836.088 682.104 836.681 682.315 837.333 682.334C837.62 682.334 838.079 682.296 838.367 682.276V684.057C838.079 684.096 837.639 684.134 837.084 684.134C835.475 684.134 834.039 683.253 834.058 681.357V675.229H832.526V673.601H834.058V671.111H836.088V673.601H838.213ZM845.069 673.601V675.229H842.944V680.936C842.944 682.104 843.537 682.315 844.189 682.334C844.476 682.334 844.935 682.296 845.223 682.276V684.057C844.935 684.096 844.495 684.134 843.94 684.134C842.331 684.134 840.895 683.253 840.914 681.357V675.229H839.382V673.601H840.914V671.111H842.944V673.601H845.069ZM847.061 687.907V673.601H849.053V675.286H849.225C849.589 674.635 850.298 673.467 852.213 673.467C854.721 673.467 856.579 675.44 856.579 678.829C856.579 682.181 854.76 684.211 852.232 684.211C850.336 684.211 849.589 683.062 849.225 682.372H849.11V687.907H847.061ZM849.072 678.791C849.072 680.974 850.03 682.468 851.772 682.468C853.572 682.468 854.511 680.878 854.511 678.791C854.511 676.742 853.592 675.21 851.772 675.21C850.01 675.21 849.072 676.627 849.072 678.791ZM864.45 676.435C864.259 675.612 863.607 675.076 862.478 675.076C861.309 675.076 860.467 675.689 860.486 676.474C860.467 677.087 860.965 677.527 862.114 677.795L863.761 678.178C865.676 678.599 866.595 679.519 866.614 680.993C866.595 682.87 865.025 684.211 862.363 684.211C859.873 684.211 858.379 683.1 858.13 681.166H860.218C860.39 682.104 861.118 682.564 862.343 682.564C863.665 682.564 864.508 682.027 864.527 681.147C864.508 680.476 864.01 680.036 862.918 679.787L861.29 679.442C859.413 679.021 858.437 678.025 858.437 676.589C858.437 674.731 860.045 673.467 862.458 673.467C864.776 673.467 866.212 674.654 866.423 676.435H864.45ZM869.946 684.134C869.199 684.134 868.568 683.521 868.587 682.774C868.568 682.027 869.199 681.415 869.946 681.415C870.674 681.415 871.306 682.027 871.306 682.774C871.306 683.521 870.674 684.134 869.946 684.134ZM869.946 676.569C869.199 676.569 868.568 675.957 868.587 675.21C868.568 674.463 869.199 673.85 869.946 673.85C870.674 673.85 871.306 674.463 871.306 675.21C871.306 675.957 870.674 676.569 869.946 676.569ZM879.062 669.484L874.6 686.087H872.781L877.243 669.484H879.062ZM885.861 669.484L881.399 686.087H879.579L884.041 669.484H885.861ZM886.895 681.07C886.895 678.695 888.906 678.082 890.782 677.948C891.472 677.9 893.033 677.814 893.521 677.795L893.502 676.972C893.502 675.803 892.793 675.114 891.395 675.114C890.189 675.114 889.461 675.669 889.25 676.435H887.22C887.412 674.712 889.021 673.467 891.472 673.467C893.119 673.467 895.551 674.08 895.551 677.087V684H893.559V682.583H893.483C893.081 683.368 892.123 684.23 890.399 684.23C888.427 684.23 886.895 683.1 886.895 681.07ZM888.887 681.089C888.887 682.085 889.71 682.602 890.859 682.602C892.525 682.602 893.521 681.491 893.521 680.246V679.289C893.042 679.327 891.549 679.433 891.07 679.461C889.729 679.557 888.887 680.055 888.887 681.089ZM898.021 684V673.601H899.994V675.248H900.109C900.492 674.137 901.526 673.448 902.752 673.448C903.001 673.448 903.403 673.467 903.614 673.486V675.44C903.441 675.401 902.962 675.325 902.541 675.325C901.124 675.325 900.071 676.301 900.071 677.661V684H898.021ZM907.099 673.601L909.378 677.642L911.676 673.601H913.917L910.68 678.791L913.936 684H911.714L909.378 680.112L907.061 684H904.82L908.037 678.791L904.839 673.601H907.099ZM915.774 684V673.601H917.823V684H915.774ZM916.808 671.992C916.1 671.992 915.506 671.456 915.506 670.786C915.506 670.116 916.1 669.579 916.808 669.579C917.498 669.579 918.092 670.116 918.092 670.786C918.092 671.456 917.498 671.992 916.808 671.992ZM929.237 673.601L925.465 684H923.262L919.49 673.601H921.692L924.316 681.587H924.411L927.035 673.601H929.237ZM931.593 684.134C930.846 684.134 930.214 683.521 930.233 682.774C930.214 682.027 930.846 681.415 931.593 681.415C932.321 681.415 932.953 682.027 932.953 682.774C932.953 683.521 932.321 684.134 931.593 684.134ZM939.828 684.211C936.879 684.211 934.963 682.066 934.963 678.848C934.963 675.612 936.879 673.467 939.828 673.467C942.758 673.467 944.673 675.612 944.673 678.848C944.673 682.066 942.758 684.211 939.828 684.211ZM939.828 682.506C941.705 682.506 942.605 680.84 942.605 678.848C942.605 676.857 941.705 675.152 939.828 675.152C937.913 675.152 937.013 676.857 937.013 678.848C937.013 680.84 937.913 682.506 939.828 682.506ZM946.684 684V673.601H948.656V675.248H948.771C949.154 674.137 950.188 673.448 951.414 673.448C951.663 673.448 952.065 673.467 952.276 673.486V675.44C952.103 675.401 951.625 675.325 951.203 675.325C949.786 675.325 948.733 676.301 948.733 677.661V684H946.684ZM957.829 688.117C955.206 688.117 953.482 686.949 953.291 685.015H955.378C955.57 685.992 956.489 686.47 957.849 686.47C959.476 686.47 960.511 685.781 960.511 684.153V682.104H960.377C960.013 682.774 959.266 683.847 957.351 683.847C954.899 683.847 953.003 682.008 953.003 678.695C953.003 675.382 954.861 673.467 957.37 673.467C959.304 673.467 960.013 674.635 960.396 675.286H960.53V673.601H962.521V684.23C962.521 686.892 960.511 688.117 957.829 688.117ZM957.81 682.162C959.553 682.162 960.53 680.878 960.53 678.734C960.53 676.627 959.572 675.21 957.81 675.21C955.991 675.21 955.091 676.742 955.091 678.734C955.091 680.764 956.029 682.162 957.81 682.162ZM970.297 669.484L965.835 686.087H964.015L968.477 669.484H970.297ZM971.331 681.07C971.331 678.695 973.342 678.082 975.218 677.948C975.908 677.9 977.469 677.814 977.957 677.795L977.938 676.972C977.938 675.803 977.229 675.114 975.831 675.114C974.625 675.114 973.897 675.669 973.686 676.435H971.656C971.848 674.712 973.457 673.467 975.908 673.467C977.555 673.467 979.987 674.08 979.987 677.087V684H977.995V682.583H977.919C977.517 683.368 976.559 684.23 974.835 684.23C972.863 684.23 971.331 683.1 971.331 681.07ZM973.323 681.089C973.323 682.085 974.146 682.602 975.295 682.602C976.961 682.602 977.957 681.491 977.957 680.246V679.289C977.478 679.327 975.984 679.433 975.506 679.461C974.165 679.557 973.323 680.055 973.323 681.089ZM982.63 684V670.135H984.66V675.286H984.775C985.158 674.635 985.847 673.467 987.762 673.467C990.271 673.467 992.148 675.44 992.148 678.829C992.148 682.181 990.309 684.211 987.781 684.211C985.885 684.211 985.158 683.062 984.775 682.372H984.622V684H982.63ZM984.622 678.791C984.622 680.974 985.598 682.468 987.322 682.468C989.122 682.468 990.06 680.878 990.06 678.791C990.06 676.742 989.141 675.21 987.322 675.21C985.579 675.21 984.622 676.627 984.622 678.791ZM1000.02 676.435C999.827 675.612 999.176 675.076 998.046 675.076C996.878 675.076 996.035 675.689 996.055 676.474C996.035 677.087 996.533 677.527 997.682 677.795L999.329 678.178C1001.24 678.599 1002.16 679.519 1002.18 680.993C1002.16 682.87 1000.59 684.211 997.931 684.211C995.442 684.211 993.948 683.1 993.699 681.166H995.786C995.959 682.104 996.687 682.564 997.912 682.564C999.234 682.564 1000.08 682.027 1000.1 681.147C1000.08 680.476 999.578 680.036 998.487 679.787L996.859 679.442C994.982 679.021 994.005 678.025 994.005 676.589C994.005 674.731 995.614 673.467 998.027 673.467C1000.34 673.467 1001.78 674.654 1001.99 676.435H1000.02Z" fill="#A3A8B2"/>
<path d="M758.096 495.806V509.198H755.936V503.258H749.42V509.198H747.26V495.806H749.42V501.386H755.936V495.806H758.096ZM764.797 507.578C766.219 507.578 767.425 506.264 767.443 504.536C767.425 502.808 766.219 501.494 764.797 501.494C763.285 501.494 762.259 502.7 762.259 504.536C762.259 506.354 763.285 507.578 764.797 507.578ZM760.099 504.536C760.099 501.728 761.971 499.748 764.617 499.748C765.643 499.748 766.687 500.216 767.443 501.224V499.694H769.603V509.18H767.443V507.83C766.687 508.856 765.643 509.324 764.617 509.324C761.971 509.324 760.099 507.344 760.099 504.536ZM772.896 506.444C773.454 507.182 774.336 507.56 775.02 507.56C775.956 507.56 776.64 507.074 776.64 506.354C776.64 505.022 771.654 505.472 771.654 502.394C771.654 500.738 773.094 499.568 775.164 499.568C776.262 499.568 777.576 500.108 778.314 501.026L776.91 502.286C776.442 501.656 775.722 501.35 775.164 501.35C774.372 501.35 773.814 501.746 773.814 502.34C773.814 503.744 778.8 503.222 778.8 506.318C778.8 508.082 777.234 509.324 775.02 509.324C773.796 509.324 772.338 508.73 771.456 507.686L772.896 506.444ZM787.105 504.248C787.105 502.628 786.313 501.566 785.125 501.566C783.757 501.566 782.731 502.826 782.731 504.392V509.234H780.571V495.68H782.731V501.044C783.361 500.18 784.405 499.802 785.143 499.802C787.555 499.802 789.265 501.512 789.265 503.96V509.234H787.105V504.248ZM796.963 508.73C796.513 508.928 796.117 509.162 795.073 509.162C793.399 509.162 792.229 507.92 792.229 506.138V501.53H790.555V499.784H792.229V496.976H794.389V499.784H796.783V501.53H794.389V506.138C794.389 506.786 794.749 507.272 795.271 507.29C795.739 507.326 796.243 507.038 796.279 507.02L796.963 508.73ZM802.731 507.578C804.153 507.578 805.359 506.264 805.377 504.536C805.359 502.808 804.153 501.494 802.731 501.494C801.219 501.494 800.193 502.7 800.193 504.536C800.193 506.354 801.219 507.578 802.731 507.578ZM798.033 504.536C798.033 501.728 799.905 499.748 802.551 499.748C803.577 499.748 804.621 500.216 805.377 501.224V499.694H807.537V509.18H805.377V507.83C804.621 508.856 803.577 509.324 802.551 509.324C799.905 509.324 798.033 507.344 798.033 504.536ZM814.015 507.47C815.599 507.47 816.679 506.084 816.679 504.428C816.679 502.826 815.581 501.422 814.015 501.422C812.503 501.422 811.495 502.628 811.495 504.428C811.495 506.264 812.503 507.47 814.015 507.47ZM809.335 504.446C809.335 501.638 811.207 499.676 813.853 499.676C814.771 499.676 815.977 500.072 816.679 501.134V499.622H818.839V508.64C818.821 511.34 816.913 513.248 813.925 513.248C812.323 513.248 810.541 512.618 809.623 511.142L811.297 509.972C811.999 510.926 812.863 511.376 813.925 511.376C815.635 511.376 816.679 510.35 816.679 508.91V507.722C815.869 508.82 814.717 509.252 813.853 509.252C811.207 509.252 809.335 507.254 809.335 504.446ZM821.956 506.444C822.514 507.182 823.396 507.56 824.08 507.56C825.016 507.56 825.7 507.074 825.7 506.354C825.7 505.022 820.714 505.472 820.714 502.394C820.714 500.738 822.154 499.568 824.224 499.568C825.322 499.568 826.636 500.108 827.374 501.026L825.97 502.286C825.502 501.656 824.782 501.35 824.224 501.35C823.432 501.35 822.874 501.746 822.874 502.34C822.874 503.744 827.86 503.222 827.86 506.318C827.86 508.082 826.294 509.324 824.08 509.324C822.856 509.324 821.398 508.73 820.516 507.686L821.956 506.444Z" fill="#55575B"/>
<rect x="746.5" y="523.5" width="655" height="69" rx="11.5" fill="#FAFCFE"/>
<rect x="746.5" y="523.5" width="655" height="69" rx="11.5" stroke="#E6E8EA"/>
<path d="M772.726 563.211C769.662 563.211 767.785 561.104 767.785 557.868C767.785 554.669 769.7 552.467 772.592 552.467C774.967 552.467 777.207 553.942 777.207 557.695V558.423H769.815C769.873 560.395 771.031 561.525 772.745 561.525C773.913 561.525 774.66 561.027 775.005 560.395H777.073C776.614 562.081 775.005 563.211 772.726 563.211ZM769.834 556.891H775.197C775.197 555.301 774.182 554.152 772.611 554.152C770.974 554.152 769.911 555.416 769.834 556.891ZM780.616 552.601L782.895 556.642L785.193 552.601H787.434L784.197 557.791L787.453 563H785.232L782.895 559.112L780.578 563H778.337L781.555 557.791L778.356 552.601H780.616ZM793.39 557.714C793.371 561.334 792.356 564.341 790.556 566.907H788.679C790 564.992 791.264 561.142 791.264 557.714C791.264 554.306 790 550.437 788.679 548.541H790.556C792.356 551.107 793.371 554.114 793.39 557.714ZM806.278 563L806.891 559.285H803.655L803.042 563H801.395L802.008 559.285H800.016L800.265 557.657H802.276L802.793 554.478H800.82L801.069 552.831H803.08L803.674 549.135H805.321L804.727 552.831H807.964L808.557 549.135H810.185L809.591 552.831H811.602L811.334 554.478H809.323L808.806 557.657H810.798L810.511 559.285H808.538L807.925 563H806.278ZM803.923 557.657H807.159L807.676 554.478H804.44L803.923 557.657ZM817.673 563H813.173V549.135H817.807C821.886 549.135 824.338 551.739 824.338 556.048C824.338 560.376 821.886 563 817.673 563ZM815.279 561.162H817.558C820.699 561.162 822.25 559.323 822.25 556.048C822.25 552.793 820.699 550.973 817.673 550.973H815.279V561.162ZM831.021 563.211C827.957 563.211 826.08 561.104 826.08 557.868C826.08 554.669 827.995 552.467 830.887 552.467C833.262 552.467 835.502 553.942 835.502 557.695V558.423H828.11C828.168 560.395 829.326 561.525 831.04 561.525C832.209 561.525 832.955 561.027 833.3 560.395H835.368C834.909 562.081 833.3 563.211 831.021 563.211ZM828.129 556.891H833.492C833.492 555.301 832.477 554.152 830.906 554.152C829.269 554.152 828.206 555.416 828.129 556.891ZM842.014 563.211C838.95 563.211 837.073 561.104 837.073 557.868C837.073 554.669 838.988 552.467 841.88 552.467C844.254 552.467 846.495 553.942 846.495 557.695V558.423H839.103C839.16 560.395 840.319 561.525 842.033 561.525C843.201 561.525 843.948 561.027 844.293 560.395H846.361C845.901 562.081 844.293 563.211 842.014 563.211ZM839.122 556.891H844.484C844.484 555.301 843.469 554.152 841.899 554.152C840.261 554.152 839.199 555.416 839.122 556.891ZM848.525 566.907V552.601H850.517V554.286H850.689C851.053 553.635 851.762 552.467 853.677 552.467C856.185 552.467 858.043 554.44 858.043 557.829C858.043 561.181 856.224 563.211 853.696 563.211C851.8 563.211 851.053 562.062 850.689 561.372H850.574V566.907H848.525ZM850.536 557.791C850.536 559.974 851.493 561.468 853.236 561.468C855.036 561.468 855.975 559.878 855.975 557.791C855.975 555.742 855.055 554.21 853.236 554.21C851.474 554.21 850.536 555.627 850.536 557.791ZM865.033 563V549.135H867.14V561.181H873.402V563H865.033ZM879.875 563.211C876.811 563.211 874.934 561.104 874.934 557.868C874.934 554.669 876.849 552.467 879.741 552.467C882.116 552.467 884.356 553.942 884.356 557.695V558.423H876.964C877.021 560.395 878.18 561.525 879.894 561.525C881.062 561.525 881.809 561.027 882.154 560.395H884.222C883.763 562.081 882.154 563.211 879.875 563.211ZM876.983 556.891H882.345C882.345 555.301 881.33 554.152 879.76 554.152C878.123 554.152 877.06 555.416 876.983 556.891ZM885.907 560.07C885.907 557.695 887.918 557.082 889.795 556.948C890.485 556.9 892.045 556.814 892.534 556.795L892.515 555.972C892.515 554.803 891.806 554.114 890.408 554.114C889.201 554.114 888.474 554.669 888.263 555.435H886.233C886.425 553.712 888.033 552.467 890.485 552.467C892.131 552.467 894.564 553.08 894.564 556.087V563H892.572V561.583H892.495C892.093 562.368 891.136 563.23 889.412 563.23C887.44 563.23 885.907 562.1 885.907 560.07ZM887.899 560.089C887.899 561.085 888.723 561.602 889.872 561.602C891.538 561.602 892.534 560.491 892.534 559.246V558.289C892.055 558.327 890.561 558.433 890.082 558.461C888.742 558.557 887.899 559.055 887.899 560.089ZM897.034 563V552.601H899.007V554.248H899.122C899.505 553.137 900.539 552.448 901.764 552.448C902.013 552.448 902.415 552.467 902.626 552.486V554.44C902.454 554.401 901.975 554.325 901.554 554.325C900.137 554.325 899.083 555.301 899.083 556.661V563H897.034ZM906.207 556.833V563H904.158V552.601H906.131V554.306H906.246C906.744 553.195 907.759 552.467 909.31 552.467C911.455 552.467 912.853 553.808 912.853 556.393V563H910.823V556.642C910.823 555.129 909.999 554.229 908.62 554.229C907.222 554.229 906.207 555.167 906.207 556.833ZM915.342 563V552.601H917.391V563H915.342ZM916.376 550.992C915.668 550.992 915.074 550.456 915.074 549.786C915.074 549.116 915.668 548.579 916.376 548.579C917.066 548.579 917.66 549.116 917.66 549.786C917.66 550.456 917.066 550.992 916.376 550.992ZM921.93 556.833V563H919.881V552.601H921.854V554.306H921.968C922.466 553.195 923.481 552.467 925.033 552.467C927.177 552.467 928.575 553.808 928.575 556.393V563H926.546V556.642C926.546 555.129 925.722 554.229 924.343 554.229C922.945 554.229 921.93 555.167 921.93 556.833ZM935.431 567.117C932.808 567.117 931.084 565.949 930.893 564.015H932.98C933.172 564.992 934.091 565.47 935.451 565.47C937.078 565.47 938.113 564.781 938.113 563.153V561.104H937.979C937.615 561.774 936.868 562.847 934.953 562.847C932.501 562.847 930.605 561.008 930.605 557.695C930.605 554.382 932.463 552.467 934.972 552.467C936.906 552.467 937.615 553.635 937.998 554.286H938.132V552.601H940.123V563.23C940.123 565.892 938.113 567.117 935.431 567.117ZM935.412 561.162C937.155 561.162 938.132 559.878 938.132 557.734C938.132 555.627 937.174 554.21 935.412 554.21C933.593 554.21 932.693 555.742 932.693 557.734C932.693 559.764 933.631 561.162 935.412 561.162ZM945.084 561.679L943.551 566.964H941.924L942.939 561.679H945.084ZM952.591 563V549.135H954.697V561.181H960.96V563H952.591ZM963.124 563V549.135H965.23V561.181H971.492V563H963.124ZM973.657 549.135H976.223L980.608 559.878H980.781L985.166 549.135H987.732V563H985.722V552.984H985.588L981.528 562.981H979.861L975.782 552.965H975.667V563H973.657V549.135ZM991.735 563.134C990.988 563.134 990.356 562.521 990.375 561.774C990.356 561.027 990.988 560.415 991.735 560.415C992.463 560.415 993.095 561.027 993.095 561.774C993.095 562.521 992.463 563.134 991.735 563.134ZM996.906 563.134C996.159 563.134 995.527 562.521 995.546 561.774C995.527 561.027 996.159 560.415 996.906 560.415C997.633 560.415 998.265 561.027 998.265 561.774C998.265 562.521 997.633 563.134 996.906 563.134ZM1002.08 563.134C1001.33 563.134 1000.7 562.521 1000.72 561.774C1000.7 561.027 1001.33 560.415 1002.08 560.415C1002.8 560.415 1003.44 561.027 1003.44 561.774C1003.44 562.521 1002.8 563.134 1002.08 563.134ZM1014.95 563.211C1011.88 563.211 1010 561.104 1010 557.868C1010 554.669 1011.92 552.467 1014.81 552.467C1017.19 552.467 1019.43 553.942 1019.43 557.695V558.423H1012.03C1012.09 560.395 1013.25 561.525 1014.96 561.525C1016.13 561.525 1016.88 561.027 1017.22 560.395H1019.29C1018.83 562.081 1017.22 563.211 1014.95 563.211ZM1012.05 556.891H1017.42C1017.42 555.301 1016.4 554.152 1014.83 554.152C1013.19 554.152 1012.13 555.416 1012.05 556.891ZM1026.32 552.601V554.229H1024.2V559.936C1024.2 561.104 1024.79 561.315 1025.44 561.334C1025.73 561.334 1026.19 561.296 1026.47 561.276V563.057C1026.19 563.096 1025.75 563.134 1025.19 563.134C1023.58 563.134 1022.15 562.253 1022.17 560.357V554.229H1020.63V552.601H1022.17V550.111H1024.2V552.601H1026.32ZM1032.6 563.211C1029.58 563.211 1027.74 560.97 1027.74 557.848C1027.74 554.669 1029.63 552.467 1032.56 552.467C1034.94 552.467 1036.66 553.865 1036.87 555.972H1034.88C1034.67 554.995 1033.89 554.171 1032.6 554.171C1030.92 554.171 1029.79 555.569 1029.79 557.791C1029.79 560.07 1030.9 561.468 1032.6 561.468C1033.75 561.468 1034.63 560.836 1034.88 559.706H1036.87C1036.64 561.717 1035.05 563.211 1032.6 563.211Z" fill="#A3A8B2"/>
<path d="M752.786 243.844C754.208 243.844 755.126 242.818 755.126 241.27C755.126 239.704 754.19 238.678 752.768 238.678H749.402V243.844H752.786ZM747.242 250.198V236.806H752.858C755.45 236.806 757.286 238.642 757.286 241.27C757.286 243.88 755.45 245.716 752.858 245.716H749.402V250.198H747.242ZM762.756 248.47C764.25 248.47 765.222 247.282 765.222 245.446C765.222 243.628 764.25 242.404 762.756 242.404C761.262 242.404 760.29 243.628 760.29 245.446C760.29 247.282 761.262 248.47 762.756 248.47ZM758.13 245.446C758.13 242.62 760.038 240.64 762.756 240.64C765.474 240.64 767.382 242.62 767.382 245.446C767.382 248.272 765.474 250.252 762.756 250.252C760.038 250.252 758.13 248.272 758.13 245.446ZM770.136 247.444C770.694 248.182 771.576 248.56 772.26 248.56C773.196 248.56 773.88 248.074 773.88 247.354C773.88 246.022 768.894 246.472 768.894 243.394C768.894 241.738 770.334 240.568 772.404 240.568C773.502 240.568 774.816 241.108 775.554 242.026L774.15 243.286C773.682 242.656 772.962 242.35 772.404 242.35C771.612 242.35 771.054 242.746 771.054 243.34C771.054 244.744 776.04 244.222 776.04 247.318C776.04 249.082 774.474 250.324 772.26 250.324C771.036 250.324 769.578 249.73 768.696 248.686L770.136 247.444ZM783.358 249.73C782.908 249.928 782.512 250.162 781.468 250.162C779.794 250.162 778.624 248.92 778.624 247.138V242.53H776.95V240.784H778.624V237.976H780.784V240.784H783.178V242.53H780.784V247.138C780.784 247.786 781.144 248.272 781.666 248.29C782.134 248.326 782.638 248.038 782.674 248.02L783.358 249.73ZM796.032 250.342C792.144 250.342 789.426 247.516 789.426 243.502C789.426 239.47 792.144 236.662 796.032 236.662C797.868 236.662 799.506 237.436 800.694 238.66L799.29 240.1C798.552 239.164 797.31 238.552 796.014 238.552C793.35 238.534 791.586 240.514 791.586 243.502C791.586 246.49 793.35 248.452 796.014 248.452C797.436 248.452 798.516 247.768 799.2 246.958L800.694 248.344C799.506 249.568 797.994 250.36 796.032 250.342ZM806.508 248.47C808.002 248.47 808.974 247.282 808.974 245.446C808.974 243.628 808.002 242.404 806.508 242.404C805.014 242.404 804.042 243.628 804.042 245.446C804.042 247.282 805.014 248.47 806.508 248.47ZM801.882 245.446C801.882 242.62 803.79 240.64 806.508 240.64C809.226 240.64 811.134 242.62 811.134 245.446C811.134 248.272 809.226 250.252 806.508 250.252C803.79 250.252 801.882 248.272 801.882 245.446ZM819.414 245.05C819.414 243.43 818.622 242.458 817.2 242.458C815.904 242.458 814.86 243.502 814.896 245.05V250.18H812.736V240.694H814.896V242.242C815.436 241.342 816.444 240.694 817.47 240.694C819.342 240.694 821.574 241.702 821.574 244.996V250.18H819.414V245.05ZM829.166 249.73C828.716 249.928 828.32 250.162 827.276 250.162C825.602 250.162 824.432 248.92 824.432 247.138V242.53H822.758V240.784H824.432V237.976H826.592V240.784H828.986V242.53H826.592V247.138C826.592 247.786 826.952 248.272 827.474 248.29C827.942 248.326 828.446 248.038 828.482 248.02L829.166 249.73ZM837.238 244.636C837.076 243.574 836.374 242.404 834.844 242.404C833.494 242.404 832.468 243.412 832.252 244.636H837.238ZM830.236 245.446C830.236 242.62 832.126 240.64 834.826 240.64C837.814 240.64 838.75 243.088 838.804 243.214C839.38 244.51 839.2 245.986 839.2 246.22H832.252C832.468 247.552 833.638 248.452 834.844 248.452C836.536 248.452 837.058 247.462 837.112 247.39L838.858 248.128C838.858 248.128 837.976 250.234 834.826 250.234C832.126 250.234 830.236 248.272 830.236 245.446ZM847.627 245.05C847.627 243.43 846.835 242.458 845.413 242.458C844.117 242.458 843.073 243.502 843.109 245.05V250.18H840.949V240.694H843.109V242.242C843.649 241.342 844.657 240.694 845.683 240.694C847.555 240.694 849.787 241.702 849.787 244.996V250.18H847.627V245.05ZM857.379 249.73C856.929 249.928 856.533 250.162 855.489 250.162C853.815 250.162 852.645 248.92 852.645 247.138V242.53H850.971V240.784H852.645V237.976H854.805V240.784H857.199V242.53H854.805V247.138C854.805 247.786 855.165 248.272 855.687 248.29C856.155 248.326 856.659 248.038 856.695 248.02L857.379 249.73Z" fill="#55575B"/>
<rect x="746.5" y="264.5" width="655" height="210" rx="11.5" fill="#FAFCFE"/>
<rect x="746.5" y="264.5" width="655" height="210" rx="11.5" stroke="#E6E8EA"/>
<path d="M788 305.373H807.61V285.762H788V305.373ZM815.194 290.135V295.076H813.509V290.135H815.194ZM818.68 290.135V295.076H816.994V290.135H818.68ZM828.772 293.793C828.638 292.51 827.508 291.763 825.919 291.763C824.214 291.763 823.142 292.624 823.142 293.812C823.142 295.133 824.578 295.631 825.67 295.899L827.01 296.263C828.791 296.684 830.994 297.661 831.013 300.17C830.994 302.506 829.136 304.23 825.861 304.23C822.759 304.23 820.805 302.679 820.671 300.151H822.778C822.912 301.664 824.233 302.391 825.861 302.391C827.623 302.391 828.906 301.491 828.925 300.132C828.906 298.925 827.776 298.427 826.302 298.044L824.655 297.604C822.433 296.991 821.035 295.861 821.035 293.927C821.035 291.533 823.18 289.943 825.976 289.943C828.791 289.943 830.764 291.552 830.821 293.793H828.772ZM835.149 297.833V304H833.1V290.135H835.111V295.306H835.245C835.743 294.176 836.701 293.467 838.328 293.467C840.473 293.467 841.89 294.788 841.89 297.393V304H839.841V297.642C839.841 296.11 839.018 295.229 837.639 295.229C836.203 295.229 835.149 296.167 835.149 297.833ZM843.882 301.07C843.882 298.695 845.893 298.082 847.77 297.948C848.459 297.9 850.02 297.814 850.508 297.795L850.489 296.972C850.489 295.803 849.781 295.114 848.383 295.114C847.176 295.114 846.448 295.669 846.238 296.435H844.208C844.399 294.712 846.008 293.467 848.459 293.467C850.106 293.467 852.538 294.08 852.538 297.087V304H850.547V302.583H850.47C850.068 303.368 849.11 304.23 847.387 304.23C845.414 304.23 843.882 303.1 843.882 301.07ZM845.874 301.089C845.874 302.085 846.697 302.602 847.846 302.602C849.512 302.602 850.508 301.491 850.508 300.246V299.289C850.03 299.327 848.536 299.433 848.057 299.461C846.716 299.557 845.874 300.055 845.874 301.089ZM855.009 304V293.601H856.981V295.248H857.096C857.479 294.137 858.513 293.448 859.739 293.448C859.988 293.448 860.39 293.467 860.601 293.486V295.44C860.428 295.401 859.95 295.325 859.528 295.325C858.111 295.325 857.058 296.301 857.058 297.661V304H855.009ZM866.269 304.211C863.205 304.211 861.329 302.104 861.329 298.868C861.329 295.669 863.244 293.467 866.135 293.467C868.51 293.467 870.751 294.942 870.751 298.695V299.423H863.358C863.416 301.395 864.575 302.525 866.289 302.525C867.457 302.525 868.204 302.027 868.548 301.395H870.617C870.157 303.081 868.548 304.211 866.269 304.211ZM863.378 297.891H868.74C868.74 296.301 867.725 295.152 866.155 295.152C864.517 295.152 863.454 296.416 863.378 297.891ZM878.832 307.907C878.411 307.907 878.009 307.888 877.741 307.849V306.145C877.971 306.164 878.373 306.183 878.66 306.183C879.292 306.183 879.828 306.126 880.307 304.823L880.556 304.134L876.745 293.601H878.928L881.552 301.664H881.667L884.29 293.601H886.493L882.203 305.379C881.609 307.026 880.537 307.907 878.832 307.907ZM892.2 304.211C889.25 304.211 887.335 302.066 887.335 298.848C887.335 295.612 889.25 293.467 892.2 293.467C895.13 293.467 897.045 295.612 897.045 298.848C897.045 302.066 895.13 304.211 892.2 304.211ZM892.2 302.506C894.076 302.506 894.977 300.84 894.977 298.848C894.977 296.857 894.076 295.152 892.2 295.152C890.285 295.152 889.384 296.857 889.384 298.848C889.384 300.84 890.285 302.506 892.2 302.506ZM905.663 299.672V293.601H907.693V304H905.701V302.2H905.586C905.107 303.311 904.035 304.134 902.484 304.134C900.473 304.134 899.056 302.793 899.056 300.208V293.601H901.105V299.959C901.105 301.376 901.967 302.276 903.211 302.276C904.341 302.276 905.663 301.453 905.663 299.672ZM910.182 304V293.601H912.155V295.248H912.27C912.653 294.137 913.687 293.448 914.913 293.448C915.161 293.448 915.564 293.467 915.774 293.486V295.44C915.602 295.401 915.123 295.325 914.702 295.325C913.285 295.325 912.231 296.301 912.231 297.661V304H910.182ZM922.094 304V293.601H924.143V304H922.094ZM923.128 291.992C922.42 291.992 921.826 291.456 921.826 290.786C921.826 290.116 922.42 289.579 923.128 289.579C923.818 289.579 924.411 290.116 924.411 290.786C924.411 291.456 923.818 291.992 923.128 291.992ZM928.682 297.833V304H926.633V293.601H928.605V295.306H928.72C929.218 294.195 930.233 293.467 931.784 293.467C933.929 293.467 935.327 294.808 935.327 297.393V304H933.297V297.642C933.297 296.129 932.474 295.229 931.095 295.229C929.697 295.229 928.682 296.167 928.682 297.833ZM943.658 296.435C943.466 295.612 942.815 295.076 941.685 295.076C940.517 295.076 939.675 295.689 939.694 296.474C939.675 297.087 940.172 297.527 941.321 297.795L942.968 298.178C944.884 298.599 945.803 299.519 945.822 300.993C945.803 302.87 944.232 304.211 941.57 304.211C939.081 304.211 937.587 303.1 937.338 301.166H939.426C939.598 302.104 940.326 302.564 941.551 302.564C942.873 302.564 943.715 302.027 943.734 301.147C943.715 300.476 943.217 300.036 942.126 299.787L940.498 299.442C938.621 299.021 937.645 298.025 937.645 296.589C937.645 294.731 939.253 293.467 941.666 293.467C943.983 293.467 945.42 294.654 945.63 296.435H943.658ZM947.814 304V293.601H949.863V304H947.814ZM948.848 291.992C948.139 291.992 947.546 291.456 947.546 290.786C947.546 290.116 948.139 289.579 948.848 289.579C949.537 289.579 950.131 290.116 950.131 290.786C950.131 291.456 949.537 291.992 948.848 291.992ZM956.719 308.117C954.095 308.117 952.372 306.949 952.18 305.015H954.267C954.459 305.992 955.378 306.47 956.738 306.47C958.366 306.47 959.4 305.781 959.4 304.153V302.104H959.266C958.902 302.774 958.155 303.847 956.24 303.847C953.789 303.847 951.893 302.008 951.893 298.695C951.893 295.382 953.75 293.467 956.259 293.467C958.193 293.467 958.902 294.635 959.285 295.286H959.419V293.601H961.411V304.23C961.411 306.892 959.4 308.117 956.719 308.117ZM956.7 302.162C958.442 302.162 959.419 300.878 959.419 298.734C959.419 296.627 958.461 295.21 956.7 295.21C954.88 295.21 953.98 296.742 953.98 298.734C953.98 300.764 954.919 302.162 956.7 302.162ZM965.949 297.833V304H963.9V290.135H965.911V295.306H966.045C966.543 294.176 967.501 293.467 969.128 293.467C971.273 293.467 972.691 294.788 972.691 297.393V304H970.641V297.642C970.641 296.11 969.818 295.229 968.439 295.229C967.003 295.229 965.949 296.167 965.949 297.833ZM980.025 293.601V295.229H977.9V300.936C977.9 302.104 978.493 302.315 979.144 302.334C979.432 302.334 979.891 302.296 980.179 302.276V304.057C979.891 304.096 979.451 304.134 978.895 304.134C977.287 304.134 975.85 303.253 975.87 301.357V295.229H974.338V293.601H975.87V291.111H977.9V293.601H980.025ZM987.686 296.435C987.494 295.612 986.843 295.076 985.713 295.076C984.545 295.076 983.702 295.689 983.721 296.474C983.702 297.087 984.2 297.527 985.349 297.795L986.996 298.178C988.911 298.599 989.831 299.519 989.85 300.993C989.831 302.87 988.26 304.211 985.598 304.211C983.109 304.211 981.615 303.1 981.366 301.166H983.453C983.626 302.104 984.353 302.564 985.579 302.564C986.9 302.564 987.743 302.027 987.762 301.147C987.743 300.476 987.245 300.036 986.154 299.787L984.526 299.442C982.649 299.021 981.672 298.025 981.672 296.589C981.672 294.731 983.281 293.467 985.694 293.467C988.011 293.467 989.448 294.654 989.658 296.435H987.686ZM994.312 302.679L992.78 307.964H991.152L992.167 302.679H994.312ZM1008.66 307.907V302.372H1008.56C1008.18 303.062 1007.43 304.211 1005.53 304.211C1003.03 304.211 1001.19 302.181 1001.19 298.829C1001.19 295.44 1003.04 293.467 1005.55 293.467C1007.49 293.467 1008.2 294.635 1008.56 295.286H1008.71V293.601H1010.7V307.907H1008.66ZM1005.99 302.468C1007.74 302.468 1008.71 300.974 1008.71 298.791C1008.71 296.627 1007.76 295.21 1005.99 295.21C1004.17 295.21 1003.27 296.742 1003.27 298.791C1003.27 300.878 1004.21 302.468 1005.99 302.468ZM1019.8 299.672V293.601H1021.83V304H1019.84V302.2H1019.72C1019.25 303.311 1018.17 304.134 1016.62 304.134C1014.61 304.134 1013.19 302.793 1013.19 300.208V293.601H1015.24V299.959C1015.24 301.376 1016.11 302.276 1017.35 302.276C1018.48 302.276 1019.8 301.453 1019.8 299.672ZM1028.8 304.211C1025.74 304.211 1023.86 302.104 1023.86 298.868C1023.86 295.669 1025.78 293.467 1028.67 293.467C1031.04 293.467 1033.28 294.942 1033.28 298.695V299.423H1025.89C1025.95 301.395 1027.11 302.525 1028.82 302.525C1029.99 302.525 1030.74 302.027 1031.08 301.395H1033.15C1032.69 303.081 1031.08 304.211 1028.8 304.211ZM1025.91 297.891H1031.27C1031.27 296.301 1030.26 295.152 1028.69 295.152C1027.05 295.152 1025.99 296.416 1025.91 297.891ZM1041.15 296.435C1040.96 295.612 1040.31 295.076 1039.18 295.076C1038.01 295.076 1037.17 295.689 1037.19 296.474C1037.17 297.087 1037.67 297.527 1038.82 297.795L1040.47 298.178C1042.38 298.599 1043.3 299.519 1043.32 300.993C1043.3 302.87 1041.73 304.211 1039.07 304.211C1036.58 304.211 1035.08 303.1 1034.83 301.166H1036.92C1037.09 302.104 1037.82 302.564 1039.05 302.564C1040.37 302.564 1041.21 302.027 1041.23 301.147C1041.21 300.476 1040.71 300.036 1039.62 299.787L1037.99 299.442C1036.12 299.021 1035.14 298.025 1035.14 296.589C1035.14 294.731 1036.75 293.467 1039.16 293.467C1041.48 293.467 1042.92 294.654 1043.13 296.435H1041.15ZM1050.17 293.601V295.229H1048.05V300.936C1048.05 302.104 1048.64 302.315 1049.29 302.334C1049.58 302.334 1050.04 302.296 1050.33 302.276V304.057C1050.04 304.096 1049.6 304.134 1049.04 304.134C1047.44 304.134 1046 303.253 1046.02 301.357V295.229H1044.49V293.601H1046.02V291.111H1048.05V293.601H1050.17ZM1052.17 304V293.601H1054.22V304H1052.17ZM1053.2 291.992C1052.49 291.992 1051.9 291.456 1051.9 290.786C1051.9 290.116 1052.49 289.579 1053.2 289.579C1053.89 289.579 1054.48 290.116 1054.48 290.786C1054.48 291.456 1053.89 291.992 1053.2 291.992ZM1061.11 304.211C1058.16 304.211 1056.25 302.066 1056.25 298.848C1056.25 295.612 1058.16 293.467 1061.11 293.467C1064.04 293.467 1065.96 295.612 1065.96 298.848C1065.96 302.066 1064.04 304.211 1061.11 304.211ZM1061.11 302.506C1062.99 302.506 1063.89 300.84 1063.89 298.848C1063.89 296.857 1062.99 295.152 1061.11 295.152C1059.19 295.152 1058.29 296.857 1058.29 298.848C1058.29 300.84 1059.19 302.506 1061.11 302.506ZM1070.02 297.833V304H1067.97V293.601H1069.94V295.306H1070.05C1070.55 294.195 1071.57 293.467 1073.12 293.467C1075.26 293.467 1076.66 294.808 1076.66 297.393V304H1074.63V297.642C1074.63 296.129 1073.81 295.229 1072.43 295.229C1071.03 295.229 1070.02 296.167 1070.02 297.833ZM1084.99 296.435C1084.8 295.612 1084.15 295.076 1083.02 295.076C1081.85 295.076 1081.01 295.689 1081.03 296.474C1081.01 297.087 1081.51 297.527 1082.65 297.795L1084.3 298.178C1086.22 298.599 1087.14 299.519 1087.15 300.993C1087.14 302.87 1085.57 304.211 1082.9 304.211C1080.41 304.211 1078.92 303.1 1078.67 301.166H1080.76C1080.93 302.104 1081.66 302.564 1082.88 302.564C1084.21 302.564 1085.05 302.027 1085.07 301.147C1085.05 300.476 1084.55 300.036 1083.46 299.787L1081.83 299.442C1079.95 299.021 1078.98 298.025 1078.98 296.589C1078.98 294.731 1080.59 293.467 1083 293.467C1085.32 293.467 1086.75 294.654 1086.96 296.435H1084.99ZM1091.62 302.679L1090.09 307.964H1088.46L1089.47 302.679H1091.62ZM1103.36 304.211C1100.41 304.211 1098.49 302.066 1098.49 298.848C1098.49 295.612 1100.41 293.467 1103.36 293.467C1106.29 293.467 1108.2 295.612 1108.2 298.848C1108.2 302.066 1106.29 304.211 1103.36 304.211ZM1103.36 302.506C1105.23 302.506 1106.13 300.84 1106.13 298.848C1106.13 296.857 1105.23 295.152 1103.36 295.152C1101.44 295.152 1100.54 296.857 1100.54 298.848C1100.54 300.84 1101.44 302.506 1103.36 302.506ZM1110.21 304V293.601H1112.19V295.248H1112.3C1112.68 294.137 1113.72 293.448 1114.94 293.448C1115.19 293.448 1115.59 293.467 1115.8 293.486V295.44C1115.63 295.401 1115.15 295.325 1114.73 295.325C1113.32 295.325 1112.26 296.301 1112.26 297.661V304H1110.21ZM1127.08 293.601V295.229H1124.84V304H1122.79V295.229H1121.19V293.601H1122.79V292.395C1122.79 290.537 1123.98 289.484 1125.9 289.484C1126.4 289.484 1126.89 289.541 1127.3 289.618V291.322C1126.91 291.265 1126.62 291.246 1126.43 291.246C1125.34 291.246 1124.84 291.686 1124.84 292.701V293.601H1127.08ZM1128.94 304V293.601H1130.99V304H1128.94ZM1129.98 291.992C1129.27 291.992 1128.67 291.456 1128.67 290.786C1128.67 290.116 1129.27 289.579 1129.98 289.579C1130.67 289.579 1131.26 290.116 1131.26 290.786C1131.26 291.456 1130.67 291.992 1129.98 291.992ZM1135.53 297.833V304H1133.48V293.601H1135.45V295.306H1135.57C1136.07 294.195 1137.08 293.467 1138.63 293.467C1140.78 293.467 1142.18 294.808 1142.18 297.393V304H1140.15V297.642C1140.15 296.129 1139.32 295.229 1137.94 295.229C1136.54 295.229 1135.53 296.167 1135.53 297.833ZM1148.55 304.211C1146.04 304.211 1144.21 302.181 1144.21 298.829C1144.21 295.44 1146.06 293.467 1148.57 293.467C1150.51 293.467 1151.21 294.635 1151.58 295.286H1151.67V290.135H1153.72V304H1151.73V302.372H1151.58C1151.2 303.062 1150.45 304.211 1148.55 304.211ZM1149.01 302.468C1150.75 302.468 1151.73 300.974 1151.73 298.791C1151.73 296.627 1150.77 295.21 1149.01 295.21C1147.19 295.21 1146.29 296.742 1146.29 298.791C1146.29 300.878 1147.23 302.468 1149.01 302.468ZM1156.39 304V293.601H1158.43V304H1156.39ZM1157.42 291.992C1156.71 291.992 1156.12 291.456 1156.12 290.786C1156.12 290.116 1156.71 289.579 1157.42 289.579C1158.11 289.579 1158.7 290.116 1158.7 290.786C1158.7 291.456 1158.11 291.992 1157.42 291.992ZM1162.97 297.833V304H1160.92V293.601H1162.9V295.306H1163.01C1163.51 294.195 1164.52 293.467 1166.08 293.467C1168.22 293.467 1169.62 294.808 1169.62 297.393V304H1167.59V297.642C1167.59 296.129 1166.76 295.229 1165.39 295.229C1163.99 295.229 1162.97 296.167 1162.97 297.833ZM1176.47 308.117C1173.85 308.117 1172.13 306.949 1171.94 305.015H1174.02C1174.21 305.992 1175.13 306.47 1176.49 306.47C1178.12 306.47 1179.16 305.781 1179.16 304.153V302.104H1179.02C1178.66 302.774 1177.91 303.847 1176 303.847C1173.54 303.847 1171.65 302.008 1171.65 298.695C1171.65 295.382 1173.51 293.467 1176.01 293.467C1177.95 293.467 1178.66 294.635 1179.04 295.286H1179.17V293.601H1181.17V304.23C1181.17 306.892 1179.16 308.117 1176.47 308.117ZM1176.46 302.162C1178.2 302.162 1179.17 300.878 1179.17 298.734C1179.17 296.627 1178.22 295.21 1176.46 295.21C1174.64 295.21 1173.74 296.742 1173.74 298.734C1173.74 300.764 1174.67 302.162 1176.46 302.162ZM1189.5 296.435C1189.31 295.612 1188.65 295.076 1187.52 295.076C1186.36 295.076 1185.51 295.689 1185.53 296.474C1185.51 297.087 1186.01 297.527 1187.16 297.795L1188.81 298.178C1190.72 298.599 1191.64 299.519 1191.66 300.993C1191.64 302.87 1190.07 304.211 1187.41 304.211C1184.92 304.211 1183.43 303.1 1183.18 301.166H1185.26C1185.44 302.104 1186.16 302.564 1187.39 302.564C1188.71 302.564 1189.55 302.027 1189.57 301.147C1189.55 300.476 1189.06 300.036 1187.96 299.787L1186.34 299.442C1184.46 299.021 1183.48 298.025 1183.48 296.589C1183.48 294.731 1185.09 293.467 1187.51 293.467C1189.82 293.467 1191.26 294.654 1191.47 296.435H1189.5ZM1194.99 304.134C1194.25 304.134 1193.61 303.521 1193.63 302.774C1193.61 302.027 1194.25 301.415 1194.99 301.415C1195.72 301.415 1196.35 302.027 1196.35 302.774C1196.35 303.521 1195.72 304.134 1194.99 304.134ZM1200.16 304.134C1199.42 304.134 1198.79 303.521 1198.8 302.774C1198.79 302.027 1199.42 301.415 1200.16 301.415C1200.89 301.415 1201.52 302.027 1201.52 302.774C1201.52 303.521 1200.89 304.134 1200.16 304.134ZM1205.33 304.134C1204.59 304.134 1203.96 303.521 1203.98 302.774C1203.96 302.027 1204.59 301.415 1205.33 301.415C1206.06 301.415 1206.69 302.027 1206.69 302.774C1206.69 303.521 1206.06 304.134 1205.33 304.134ZM1209.01 290.135V295.076H1207.33V290.135H1209.01ZM1212.5 290.135V295.076H1210.81V290.135H1212.5Z" fill="#A3A8B2"/>
<path d="M756.818 118.806V120.678H752.948V132.198H750.788V120.678H746.882V118.806H756.818ZM758.669 122.622H760.829V132.234H758.669V122.622ZM758.579 119.382C758.579 118.698 759.065 118.212 759.749 118.212C760.433 118.212 760.937 118.698 760.937 119.382C760.937 120.084 760.433 120.57 759.749 120.57C759.065 120.57 758.579 120.084 758.579 119.382ZM768.979 131.73C768.529 131.928 768.133 132.162 767.089 132.162C765.415 132.162 764.245 130.92 764.245 129.138V124.53H762.571V122.784H764.245V119.976H766.405V122.784H768.799V124.53H766.405V129.138C766.405 129.786 766.765 130.272 767.287 130.29C767.755 130.326 768.259 130.038 768.295 130.02L768.979 131.73ZM770.263 118.68H772.423V132.234H770.263V118.68ZM780.9 126.636C780.738 125.574 780.036 124.404 778.506 124.404C777.156 124.404 776.13 125.412 775.914 126.636H780.9ZM773.898 127.446C773.898 124.62 775.788 122.64 778.488 122.64C781.476 122.64 782.412 125.088 782.466 125.214C783.042 126.51 782.862 127.986 782.862 128.22H775.914C776.13 129.552 777.3 130.452 778.506 130.452C780.198 130.452 780.72 129.462 780.774 129.39L782.52 130.128C782.52 130.128 781.638 132.234 778.488 132.234C775.788 132.234 773.898 130.272 773.898 127.446Z" fill="#55575B"/>
<rect x="746.5" y="146.5" width="655" height="69" rx="11.5" fill="#FAFCFE"/>
<rect x="746.5" y="146.5" width="655" height="69" rx="11.5" stroke="#E6E8EA"/>
<path d="M792.156 186L788.306 172.135H790.528L793.228 182.859H793.343L796.158 172.135H798.341L801.157 182.859H801.272L803.972 172.135H806.193L802.344 186H800.218L797.307 175.639H797.192L794.281 186H792.156ZM807.093 186V175.601H809.066V177.248H809.181C809.564 176.137 810.598 175.448 811.824 175.448C812.073 175.448 812.475 175.467 812.685 175.486V177.44C812.513 177.401 812.034 177.325 811.613 177.325C810.196 177.325 809.143 178.301 809.143 179.661V186H807.093ZM814.217 186V175.601H816.267V186H814.217ZM815.252 173.992C814.543 173.992 813.949 173.456 813.949 172.786C813.949 172.116 814.543 171.579 815.252 171.579C815.941 171.579 816.535 172.116 816.535 172.786C816.535 173.456 815.941 173.992 815.252 173.992ZM823.621 175.601V177.229H821.495V182.936C821.495 184.104 822.088 184.315 822.74 184.334C823.027 184.334 823.486 184.296 823.774 184.276V186.057C823.486 186.096 823.046 186.134 822.491 186.134C820.882 186.134 819.446 185.253 819.465 183.357V177.229H817.933V175.601H819.465V173.111H821.495V175.601H823.621ZM829.979 186.211C826.914 186.211 825.038 184.104 825.038 180.868C825.038 177.669 826.953 175.467 829.845 175.467C832.219 175.467 834.46 176.942 834.46 180.695V181.423H827.068C827.125 183.395 828.284 184.525 829.998 184.525C831.166 184.525 831.913 184.027 832.258 183.395H834.326C833.866 185.081 832.258 186.211 829.979 186.211ZM827.087 179.891H832.449C832.449 178.301 831.434 177.152 829.864 177.152C828.226 177.152 827.163 178.416 827.087 179.891ZM842.542 189.907C842.12 189.907 841.718 189.888 841.45 189.849V188.145C841.68 188.164 842.082 188.183 842.369 188.183C843.001 188.183 843.537 188.126 844.016 186.823L844.265 186.134L840.454 175.601H842.637L845.261 183.664H845.376L848 175.601H850.202L845.912 187.379C845.318 189.026 844.246 189.907 842.542 189.907ZM855.909 186.211C852.96 186.211 851.045 184.066 851.045 180.848C851.045 177.612 852.96 175.467 855.909 175.467C858.839 175.467 860.754 177.612 860.754 180.848C860.754 184.066 858.839 186.211 855.909 186.211ZM855.909 184.506C857.786 184.506 858.686 182.84 858.686 180.848C858.686 178.857 857.786 177.152 855.909 177.152C853.994 177.152 853.094 178.857 853.094 180.848C853.094 182.84 853.994 184.506 855.909 184.506ZM869.372 181.672V175.601H871.402V186H869.41V184.2H869.295C868.816 185.311 867.744 186.134 866.193 186.134C864.182 186.134 862.765 184.793 862.765 182.208V175.601H864.814V181.959C864.814 183.376 865.676 184.276 866.921 184.276C868.05 184.276 869.372 183.453 869.372 181.672ZM873.891 186V175.601H875.864V177.248H875.979C876.362 176.137 877.396 175.448 878.622 175.448C878.871 175.448 879.273 175.467 879.483 175.486V177.44C879.311 177.401 878.832 177.325 878.411 177.325C876.994 177.325 875.941 178.301 875.941 179.661V186H873.891ZM885.803 189.907V175.601H887.795V177.286H887.967C888.331 176.635 889.04 175.467 890.955 175.467C893.464 175.467 895.321 177.44 895.321 180.829C895.321 184.181 893.502 186.211 890.974 186.211C889.078 186.211 888.331 185.062 887.967 184.372H887.852V189.907H885.803ZM887.814 180.791C887.814 182.974 888.772 184.468 890.514 184.468C892.315 184.468 893.253 182.878 893.253 180.791C893.253 178.742 892.334 177.21 890.514 177.21C888.752 177.21 887.814 178.627 887.814 180.791ZM901.756 186.211C898.807 186.211 896.892 184.066 896.892 180.848C896.892 177.612 898.807 175.467 901.756 175.467C904.686 175.467 906.601 177.612 906.601 180.848C906.601 184.066 904.686 186.211 901.756 186.211ZM901.756 184.506C903.633 184.506 904.533 182.84 904.533 180.848C904.533 178.857 903.633 177.152 901.756 177.152C899.841 177.152 898.941 178.857 898.941 180.848C898.941 182.84 899.841 184.506 901.756 184.506ZM914.453 178.435C914.261 177.612 913.61 177.076 912.48 177.076C911.312 177.076 910.47 177.689 910.489 178.474C910.47 179.087 910.967 179.527 912.116 179.795L913.763 180.178C915.679 180.599 916.598 181.519 916.617 182.993C916.598 184.87 915.027 186.211 912.365 186.211C909.876 186.211 908.382 185.1 908.133 183.166H910.221C910.393 184.104 911.121 184.564 912.346 184.564C913.668 184.564 914.51 184.027 914.529 183.147C914.51 182.476 914.012 182.036 912.921 181.787L911.293 181.442C909.416 181.021 908.44 180.025 908.44 178.589C908.44 176.731 910.048 175.467 912.461 175.467C914.778 175.467 916.215 176.654 916.425 178.435H914.453ZM923.473 175.601V177.229H921.347V182.936C921.347 184.104 921.941 184.315 922.592 184.334C922.879 184.334 923.339 184.296 923.626 184.276V186.057C923.339 186.096 922.898 186.134 922.343 186.134C920.734 186.134 919.298 185.253 919.317 183.357V177.229H917.785V175.601H919.317V173.111H921.347V175.601H923.473ZM935.117 175.601V177.229H932.991V182.936C932.991 184.104 933.585 184.315 934.236 184.334C934.523 184.334 934.983 184.296 935.27 184.276V186.057C934.983 186.096 934.542 186.134 933.987 186.134C932.378 186.134 930.942 185.253 930.961 183.357V177.229H929.429V175.601H930.961V173.111H932.991V175.601H935.117ZM937.108 186V175.601H939.157V186H937.108ZM938.142 173.992C937.434 173.992 936.84 173.456 936.84 172.786C936.84 172.116 937.434 171.579 938.142 171.579C938.832 171.579 939.426 172.116 939.426 172.786C939.426 173.456 938.832 173.992 938.142 173.992ZM946.511 175.601V177.229H944.386V182.936C944.386 184.104 944.979 184.315 945.63 184.334C945.918 184.334 946.377 184.296 946.665 184.276V186.057C946.377 186.096 945.937 186.134 945.381 186.134C943.773 186.134 942.336 185.253 942.356 183.357V177.229H940.824V175.601H942.356V173.111H944.386V175.601H946.511ZM950.782 172.135V186H948.733V172.135H950.782ZM957.753 186.211C954.689 186.211 952.812 184.104 952.812 180.868C952.812 177.669 954.727 175.467 957.619 175.467C959.994 175.467 962.234 176.942 962.234 180.695V181.423H954.842C954.899 183.395 956.058 184.525 957.772 184.525C958.94 184.525 959.687 184.027 960.032 183.395H962.1C961.641 185.081 960.032 186.211 957.753 186.211ZM954.861 179.891H960.223C960.223 178.301 959.208 177.152 957.638 177.152C956.001 177.152 954.938 178.416 954.861 179.891Z" fill="#A3A8B2"/>
<rect x="58.5" y="117.5" width="649" height="595" rx="10.5" fill="white" stroke="#FF8C79" stroke-width="3"/>
<path d="M254.117 450.608C255.245 451.952 256.925 452.912 258.389 452.912C260.573 452.912 262.109 451.76 262.109 450.104C262.109 446.6 252.557 448.448 252.557 442.232C252.557 439.328 255.077 437.288 258.629 437.288C260.717 437.288 262.925 438.392 264.245 440L262.133 441.68C261.221 440.552 259.877 439.76 258.629 439.76C256.757 439.76 255.437 440.792 255.437 442.232C255.437 445.808 264.989 444.248 264.989 450.104C264.989 453.2 262.253 455.384 258.389 455.384C256.037 455.384 253.493 454.136 251.981 452.312L254.117 450.608ZM276.33 447.848C276.114 446.432 275.178 444.872 273.138 444.872C271.338 444.872 269.97 446.216 269.682 447.848H276.33ZM266.994 448.928C266.994 445.16 269.514 442.52 273.114 442.52C277.098 442.52 278.346 445.784 278.418 445.952C279.186 447.68 278.946 449.648 278.946 449.96H269.682C269.97 451.736 271.53 452.936 273.138 452.936C275.394 452.936 276.09 451.616 276.162 451.52L278.49 452.504C278.49 452.504 277.314 455.312 273.114 455.312C269.514 455.312 266.994 452.696 266.994 448.928ZM281.062 437.24H283.942V455.312H281.062V437.24ZM295.244 447.848C295.028 446.432 294.092 444.872 292.052 444.872C290.252 444.872 288.884 446.216 288.596 447.848H295.244ZM285.908 448.928C285.908 445.16 288.428 442.52 292.028 442.52C296.012 442.52 297.26 445.784 297.332 445.952C298.1 447.68 297.86 449.648 297.86 449.96H288.596C288.884 451.736 290.444 452.936 292.052 452.936C294.308 452.936 295.004 451.616 295.076 451.52L297.404 452.504C297.404 452.504 296.228 455.312 292.028 455.312C288.428 455.312 285.908 452.696 285.908 448.928ZM305.733 452.648C306.645 452.648 307.725 452.144 308.469 451.4L310.389 453.392C309.261 454.544 307.389 455.336 305.829 455.336C302.037 455.336 299.373 452.672 299.373 448.928C299.373 445.16 302.037 442.52 305.829 442.52C307.509 442.52 309.237 443.288 310.389 444.464L308.469 446.432C307.725 445.688 306.645 445.208 305.733 445.208C303.645 445.208 302.253 446.696 302.253 448.928C302.253 451.16 303.645 452.648 305.733 452.648ZM319.873 454.64C319.273 454.904 318.745 455.216 317.353 455.216C315.121 455.216 313.561 453.56 313.561 451.184V445.04H311.329V442.712H313.561V438.968H316.441V442.712H319.633V445.04H316.441V451.184C316.441 452.048 316.921 452.696 317.617 452.72C318.241 452.768 318.913 452.384 318.961 452.36L319.873 454.64ZM328.203 437.408H331.083V455.264H328.203V437.408ZM350.878 448.232C350.878 446.312 349.822 444.944 348.31 444.944C346.678 444.944 345.55 446.408 345.55 448.136V455.24H342.67V448.232C342.67 446.312 341.638 444.944 340.15 444.944C338.494 444.944 337.342 446.456 337.342 448.352V455.24H334.462V442.592H337.342V444.68C338.038 443.456 339.382 442.592 340.558 442.592C342.118 442.592 343.678 443.624 344.35 445.112C345.19 443.624 346.87 442.592 348.43 442.592C351.55 442.592 353.758 444.896 353.758 448.16V455.24H350.878V448.232ZM362.391 453.104C364.287 453.104 365.895 451.352 365.919 449.048C365.895 446.744 364.287 444.992 362.391 444.992C360.375 444.992 359.007 446.6 359.007 449.048C359.007 451.472 360.375 453.104 362.391 453.104ZM356.127 449.048C356.127 445.304 358.623 442.664 362.151 442.664C363.519 442.664 364.911 443.288 365.919 444.632V442.592H368.799V455.24H365.919V453.44C364.911 454.808 363.519 455.432 362.151 455.432C358.623 455.432 356.127 452.792 356.127 449.048ZM377.437 452.96C379.549 452.96 380.989 451.112 380.989 448.904C380.989 446.768 379.525 444.896 377.437 444.896C375.421 444.896 374.077 446.504 374.077 448.904C374.077 451.352 375.421 452.96 377.437 452.96ZM371.197 448.928C371.197 445.184 373.693 442.568 377.221 442.568C378.445 442.568 380.053 443.096 380.989 444.512V442.496H383.869V454.52C383.845 458.12 381.301 460.664 377.317 460.664C375.181 460.664 372.805 459.824 371.581 457.856L373.813 456.296C374.749 457.568 375.901 458.168 377.317 458.168C379.597 458.168 380.989 456.8 380.989 454.88V453.296C379.909 454.76 378.373 455.336 377.221 455.336C373.693 455.336 371.197 452.672 371.197 448.928ZM395.111 447.848C394.895 446.432 393.959 444.872 391.919 444.872C390.119 444.872 388.751 446.216 388.463 447.848H395.111ZM385.775 448.928C385.775 445.16 388.295 442.52 391.895 442.52C395.879 442.52 397.127 445.784 397.199 445.952C397.967 447.68 397.727 449.648 397.727 449.96H388.463C388.751 451.736 390.311 452.936 391.919 452.936C394.175 452.936 394.871 451.616 394.943 451.52L397.271 452.504C397.271 452.504 396.095 455.312 391.895 455.312C388.295 455.312 385.775 452.696 385.775 448.928ZM413.763 454.64C413.163 454.904 412.635 455.216 411.243 455.216C409.011 455.216 407.451 453.56 407.451 451.184V445.04H405.219V442.712H407.451V438.968H410.331V442.712H413.523V445.04H410.331V451.184C410.331 452.048 410.811 452.696 411.507 452.72C412.131 452.768 412.803 452.384 412.851 452.36L413.763 454.64ZM421.357 452.96C423.349 452.96 424.645 451.376 424.645 448.928C424.645 446.504 423.349 444.872 421.357 444.872C419.365 444.872 418.069 446.504 418.069 448.928C418.069 451.376 419.365 452.96 421.357 452.96ZM415.189 448.928C415.189 445.16 417.733 442.52 421.357 442.52C424.981 442.52 427.525 445.16 427.525 448.928C427.525 452.696 424.981 455.336 421.357 455.336C417.733 455.336 415.189 452.696 415.189 448.928ZM443.245 455.432C438.877 455.432 435.829 452.432 435.829 448.16V437.408H438.709V448.136C438.709 450.92 440.509 452.768 443.245 452.768C445.957 452.768 447.757 450.92 447.757 448.136V437.408H450.637V448.16C450.637 452.432 447.589 455.432 443.245 455.432ZM460.378 452.984C462.418 452.984 463.762 451.376 463.762 448.904C463.762 446.456 462.418 444.848 460.378 444.848C458.41 444.848 456.802 446.648 456.802 448.904C456.802 451.16 458.41 452.984 460.378 452.984ZM453.922 460.664V442.496H456.802V444.488C457.834 442.976 459.754 442.496 460.594 442.496C464.146 442.496 466.642 445.16 466.642 448.904C466.642 452.672 464.146 455.336 460.594 455.336C459.73 455.336 457.834 454.904 456.802 453.32V460.664H453.922ZM468.562 437.24H471.442V455.312H468.562V437.24ZM479.576 452.96C481.568 452.96 482.864 451.376 482.864 448.928C482.864 446.504 481.568 444.872 479.576 444.872C477.584 444.872 476.288 446.504 476.288 448.928C476.288 451.376 477.584 452.96 479.576 452.96ZM473.408 448.928C473.408 445.16 475.952 442.52 479.576 442.52C483.2 442.52 485.744 445.16 485.744 448.928C485.744 452.696 483.2 455.336 479.576 455.336C475.952 455.336 473.408 452.696 473.408 448.928ZM493.828 453.104C495.724 453.104 497.332 451.352 497.356 449.048C497.332 446.744 495.724 444.992 493.828 444.992C491.812 444.992 490.444 446.6 490.444 449.048C490.444 451.472 491.812 453.104 493.828 453.104ZM487.564 449.048C487.564 445.304 490.06 442.664 493.588 442.664C494.956 442.664 496.348 443.288 497.356 444.632V442.592H500.236V455.24H497.356V453.44C496.348 454.808 494.956 455.432 493.588 455.432C490.06 455.432 487.564 452.792 487.564 449.048ZM508.491 455.192C505.059 455.192 502.659 452.624 502.659 448.976C502.659 445.352 505.059 442.784 508.491 442.784C509.763 442.784 511.203 443.48 512.091 444.728V437.24H514.971V455L512.091 455.024V453.248C511.251 454.496 509.835 455.192 508.491 455.192ZM505.539 448.976C505.539 451.304 506.811 452.84 508.731 452.84C510.579 452.84 512.091 451.136 512.091 448.976C512.091 446.84 510.579 445.136 508.731 445.136C506.811 445.136 505.539 446.672 505.539 448.976Z" fill="black"/>
<path d="M215.559 494.968C216.735 496.408 218.415 497.416 220.095 497.416C222.495 497.416 224.199 496.072 224.199 494.2C224.199 490.24 214.647 492.04 214.647 486.064C214.647 483.304 216.999 481.36 220.335 481.36C222.399 481.36 224.391 482.464 225.663 484.024L224.103 485.248C223.143 484.048 221.799 483.208 220.335 483.208C218.247 483.208 216.759 484.384 216.759 486.064C216.759 490.168 226.311 488.488 226.311 494.2C226.311 497.176 223.743 499.264 220.095 499.264C217.767 499.264 215.415 498.016 213.975 496.192L215.559 494.968ZM231.624 493.84C231.624 495.88 232.896 497.272 234.72 497.272C236.76 497.272 238.176 495.856 238.176 493.816V486.64H240.288V499.072H238.176V497.008C237.384 498.208 235.896 499.072 234.6 499.072C231.624 499.072 229.512 497.008 229.512 494.008V486.712H231.624V493.84ZM249.602 497.44C251.906 497.44 253.49 495.592 253.49 492.952C253.49 490.336 251.906 488.512 249.602 488.512C247.49 488.512 245.69 490.528 245.69 492.952C245.69 495.424 247.49 497.44 249.602 497.44ZM243.554 504.568V486.688H245.666V489.088C246.53 487.432 248.426 486.712 249.698 486.712C253.178 486.712 255.602 489.28 255.602 492.952C255.602 496.648 253.178 499.24 249.698 499.24C248.378 499.24 246.53 498.4 245.666 496.84V504.568H243.554ZM264.227 497.44C266.531 497.44 268.115 495.592 268.115 492.952C268.115 490.336 266.531 488.512 264.227 488.512C262.115 488.512 260.315 490.528 260.315 492.952C260.315 495.424 262.115 497.44 264.227 497.44ZM258.179 504.568V486.688H260.291V489.088C261.155 487.432 263.051 486.712 264.323 486.712C267.803 486.712 270.227 489.28 270.227 492.952C270.227 496.648 267.803 499.24 264.323 499.24C263.003 499.24 261.155 498.4 260.291 496.84V504.568H258.179ZM278.179 497.368C280.435 497.368 282.019 495.544 282.019 492.904C282.019 490.288 280.435 488.464 278.179 488.464C275.923 488.464 274.363 490.288 274.363 492.904C274.363 495.544 275.923 497.368 278.179 497.368ZM272.251 492.904C272.251 489.232 274.699 486.64 278.179 486.64C281.683 486.64 284.131 489.232 284.131 492.904C284.131 496.576 281.683 499.168 278.179 499.168C274.699 499.168 272.251 496.576 272.251 492.904ZM288.551 489.184C289.223 487.672 290.951 486.616 292.727 486.616V488.584C290.399 488.584 288.551 490.648 288.551 492.808V499.072H286.439V486.712H288.551V489.184ZM301.806 498.64C301.326 498.832 300.846 499.048 299.91 499.048C297.894 499.048 296.454 497.584 296.454 495.52V488.584H294.39V486.784H296.454V483.424H298.566V486.784H301.71V488.584H298.566V495.52C298.566 496.48 299.166 497.152 300.006 497.176C300.558 497.176 301.182 496.888 301.23 496.864L301.806 498.64ZM312.832 492.088C312.64 490.312 311.752 488.464 309.328 488.464C307.336 488.464 305.776 490 305.488 492.112L312.832 492.088ZM303.4 492.904C303.4 489.232 305.824 486.664 309.28 486.664C313.144 486.664 314.272 489.76 314.368 490.024C315.112 491.896 314.848 493.696 314.848 493.816H305.488C305.776 495.904 307.408 497.344 309.304 497.344C311.896 497.344 312.664 495.76 312.808 495.568L314.488 496.432C314.488 496.432 313.36 499.144 309.28 499.144C305.824 499.144 303.4 496.576 303.4 492.904ZM322.802 499.192C319.37 499.192 316.97 496.624 316.97 492.976C316.97 489.328 319.37 486.76 322.802 486.76C324.266 486.76 325.85 487.528 326.81 489.16V481.528H328.922V499H326.81V496.792C325.85 498.424 324.29 499.192 322.802 499.192ZM319.082 492.976C319.082 495.568 320.666 497.392 322.946 497.392C325.034 497.392 326.81 495.4 326.81 492.976C326.81 490.576 325.034 488.584 322.946 488.584C320.666 488.584 319.082 490.384 319.082 492.976ZM349.816 481.576V483.448H340.144V489.376H348.232V491.224H340.144V499.096H338.032V481.576H349.816ZM356.718 497.368C358.974 497.368 360.558 495.544 360.558 492.904C360.558 490.288 358.974 488.464 356.718 488.464C354.462 488.464 352.902 490.288 352.902 492.904C352.902 495.544 354.462 497.368 356.718 497.368ZM350.79 492.904C350.79 489.232 353.238 486.64 356.718 486.64C360.222 486.64 362.67 489.232 362.67 492.904C362.67 496.576 360.222 499.168 356.718 499.168C353.238 499.168 350.79 496.576 350.79 492.904ZM367.09 489.184C367.762 487.672 369.49 486.616 371.266 486.616V488.584C368.938 488.584 367.09 490.648 367.09 492.808V499.072H364.978V486.712H367.09V489.184ZM389.969 491.752C389.969 489.856 388.841 488.536 387.209 488.536C385.361 488.536 384.089 489.832 384.089 491.56V499.072H381.977V491.752C381.977 489.856 380.849 488.536 379.265 488.536C377.393 488.536 376.097 490.144 376.097 491.992V499.072H373.985V486.712H376.097V488.8C376.793 487.576 378.161 486.712 379.385 486.712C380.993 486.712 382.553 487.744 383.225 489.184C383.993 487.744 385.649 486.712 387.257 486.712C390.089 486.712 392.081 488.728 392.081 491.608V499.072H389.969V491.752ZM400.688 497.464C402.752 497.464 404.6 495.568 404.624 493.024C404.6 490.48 402.752 488.584 400.688 488.584C398.408 488.584 396.824 490.384 396.824 493.024C396.824 495.64 398.408 497.464 400.688 497.464ZM394.712 493.024C394.712 489.376 397.136 486.784 400.592 486.784C401.984 486.784 403.52 487.504 404.576 489.136V486.712H406.688V499.072H404.576V496.888C403.472 498.592 402.008 499.264 400.592 499.264C397.136 499.264 394.712 496.672 394.712 493.024ZM415.97 498.64C415.49 498.832 415.01 499.048 414.074 499.048C412.058 499.048 410.618 497.584 410.618 495.52V488.584H408.554V486.784H410.618V483.424H412.73V486.784H415.874V488.584H412.73V495.52C412.73 496.48 413.33 497.152 414.17 497.176C414.722 497.176 415.346 496.888 415.394 496.864L415.97 498.64ZM426.43 485.032C427.15 485.032 427.654 485.536 427.654 486.256C427.654 486.976 427.15 487.48 426.43 487.48C425.71 487.48 425.182 486.976 425.182 486.256C425.182 485.536 425.71 485.032 426.43 485.032ZM425.182 494.32C425.182 493.6 425.71 493.096 426.43 493.096C427.15 493.096 427.654 493.6 427.654 494.32C427.654 495.04 427.15 495.568 426.43 495.568C425.71 495.568 425.182 495.04 425.182 494.32ZM438.778 494.968C439.954 496.408 441.634 497.416 443.314 497.416C445.714 497.416 447.418 496.072 447.418 494.2C447.418 490.24 437.866 492.04 437.866 486.064C437.866 483.304 440.218 481.36 443.554 481.36C445.618 481.36 447.61 482.464 448.882 484.024L447.322 485.248C446.362 484.048 445.018 483.208 443.554 483.208C441.466 483.208 439.978 484.384 439.978 486.064C439.978 490.168 449.53 488.488 449.53 494.2C449.53 497.176 446.962 499.264 443.314 499.264C440.986 499.264 438.634 498.016 437.194 496.192L438.778 494.968ZM468.071 481.576L461.063 499.096H458.711L451.343 481.576H453.623L459.863 496.696L465.791 481.576H468.071ZM485.59 489.976C485.686 490.576 485.566 491.68 485.566 491.68C485.11 496.624 482.014 499.192 477.334 499.288C472.246 499.288 468.67 495.592 468.67 490.336C468.67 485.104 472.246 481.408 477.334 481.408C482.782 481.408 484.678 485.632 484.678 485.632L482.83 486.52C482.83 486.52 481.438 483.28 477.334 483.28C473.446 483.28 470.782 486.16 470.782 490.336C470.782 494.536 473.446 497.416 477.334 497.416C480.79 497.296 483.166 495.52 483.454 491.776H477.67V489.976H485.59ZM491.597 497.008L490.133 501.952H488.573L489.365 497.008H491.597ZM508.725 490.768C510.765 490.768 512.181 489.256 512.181 487.096C512.181 484.936 510.741 483.448 508.701 483.448H503.925L503.949 490.768H508.725ZM501.837 499.096V481.576H508.773C511.989 481.576 514.245 483.856 514.245 487.096C514.245 490.336 511.989 492.616 508.773 492.616H503.949V499.096H501.837ZM531.73 481.576V499.096H529.522L519.37 485.056V499.096H517.258V481.576H519.466L529.618 495.616V481.576H531.73ZM551.777 489.976C551.873 490.576 551.753 491.68 551.753 491.68C551.297 496.624 548.201 499.192 543.521 499.288C538.433 499.288 534.857 495.592 534.857 490.336C534.857 485.104 538.433 481.408 543.521 481.408C548.969 481.408 550.865 485.632 550.865 485.632L549.017 486.52C549.017 486.52 547.625 483.28 543.521 483.28C539.633 483.28 536.969 486.16 536.969 490.336C536.969 494.536 539.633 497.416 543.521 497.416C546.977 497.296 549.353 495.52 549.641 491.776H543.857V489.976H551.777Z" fill="#55575B"/>
<circle cx="384" cy="316" r="65" fill="#FF8C79"/>
<path d="M385 315V335" stroke="#303B59" stroke-width="4" stroke-linecap="round" stroke-linejoin="round"/>
<path d="M403.313 329C405.441 327.86 407.122 326.055 408.091 323.871C409.059 321.688 409.261 319.249 408.663 316.94C408.065 314.632 406.702 312.584 404.789 311.121C402.877 309.659 400.523 308.864 398.099 308.862H395.35C394.69 306.351 393.459 304.021 391.75 302.045C390.042 300.069 387.9 298.499 385.485 297.454C383.071 296.409 380.447 295.916 377.81 296.012C375.174 296.107 372.594 296.789 370.264 298.006C367.935 299.222 365.916 300.943 364.36 303.037C362.803 305.131 361.751 307.545 361.28 310.096C360.809 312.648 360.933 315.271 361.643 317.769C362.352 320.267 363.628 322.575 365.375 324.518" stroke="#303B59" stroke-width="4" stroke-linecap="round" stroke-linejoin="round"/>
<path d="M394 324L385 315L376 324" stroke="#303B59" stroke-width="4" stroke-linecap="round" stroke-linejoin="round"/>
<rect x="278" y="549" width="199" height="72" rx="36" fill="#303B59"/>
<path d="M309.672 590.108C310.8 591.452 312.48 592.412 313.944 592.412C316.128 592.412 317.664 591.26 317.664 589.604C317.664 586.1 308.112 587.948 308.112 581.732C308.112 578.828 310.632 576.788 314.184 576.788C316.272 576.788 318.48 577.892 319.8 579.5L317.688 581.18C316.776 580.052 315.432 579.26 314.184 579.26C312.312 579.26 310.992 580.292 310.992 581.732C310.992 585.308 320.544 583.748 320.544 589.604C320.544 592.7 317.808 594.884 313.944 594.884C311.592 594.884 309.048 593.636 307.536 591.812L309.672 590.108ZM331.885 587.348C331.669 585.932 330.733 584.372 328.693 584.372C326.893 584.372 325.525 585.716 325.237 587.348H331.885ZM322.549 588.428C322.549 584.66 325.069 582.02 328.669 582.02C332.653 582.02 333.901 585.284 333.973 585.452C334.741 587.18 334.501 589.148 334.501 589.46H325.237C325.525 591.236 327.085 592.436 328.693 592.436C330.949 592.436 331.645 591.116 331.717 591.02L334.045 592.004C334.045 592.004 332.869 594.812 328.669 594.812C325.069 594.812 322.549 592.196 322.549 588.428ZM336.617 576.74H339.497V594.812H336.617V576.74ZM350.799 587.348C350.583 585.932 349.647 584.372 347.607 584.372C345.807 584.372 344.439 585.716 344.151 587.348H350.799ZM341.463 588.428C341.463 584.66 343.983 582.02 347.583 582.02C351.567 582.02 352.815 585.284 352.887 585.452C353.655 587.18 353.415 589.148 353.415 589.46H344.151C344.439 591.236 345.999 592.436 347.607 592.436C349.863 592.436 350.559 591.116 350.631 591.02L352.959 592.004C352.959 592.004 351.783 594.812 347.583 594.812C343.983 594.812 341.463 592.196 341.463 588.428ZM361.288 592.148C362.2 592.148 363.28 591.644 364.024 590.9L365.944 592.892C364.816 594.044 362.944 594.836 361.384 594.836C357.592 594.836 354.928 592.172 354.928 588.428C354.928 584.66 357.592 582.02 361.384 582.02C363.064 582.02 364.792 582.788 365.944 583.964L364.024 585.932C363.28 585.188 362.2 584.708 361.288 584.708C359.2 584.708 357.808 586.196 357.808 588.428C357.808 590.66 359.2 592.148 361.288 592.148ZM375.428 594.14C374.828 594.404 374.3 594.716 372.908 594.716C370.676 594.716 369.116 593.06 369.116 590.684V584.54H366.884V582.212H369.116V578.468H371.996V582.212H375.188V584.54H371.996V590.684C371.996 591.548 372.476 592.196 373.172 592.22C373.796 592.268 374.468 591.884 374.516 591.86L375.428 594.14ZM396.166 576.908V579.404H386.59V584.564H394.654V587.036H386.59V594.764H383.71V576.908H396.166ZM398.619 581.996H401.499V594.812H398.619V581.996ZM398.499 577.676C398.499 576.764 399.147 576.116 400.059 576.116C400.971 576.116 401.643 576.764 401.643 577.676C401.643 578.612 400.971 579.26 400.059 579.26C399.147 579.26 398.499 578.612 398.499 577.676ZM404.445 576.74H407.325V594.812H404.445V576.74ZM418.627 587.348C418.411 585.932 417.475 584.372 415.435 584.372C413.635 584.372 412.267 585.716 411.979 587.348H418.627ZM409.291 588.428C409.291 584.66 411.811 582.02 415.411 582.02C419.395 582.02 420.643 585.284 420.715 585.452C421.483 587.18 421.243 589.148 421.243 589.46H411.979C412.267 591.236 413.827 592.436 415.435 592.436C417.691 592.436 418.387 591.116 418.459 591.02L420.787 592.004C420.787 592.004 419.611 594.812 415.411 594.812C411.811 594.812 409.291 592.196 409.291 588.428Z" fill="white"/>
<path d="M433 584V592C433 592.53 433.211 593.039 433.586 593.414C433.961 593.789 434.47 594 435 594H447C447.53 594 448.039 593.789 448.414 593.414C448.789 593.039 449 592.53 449 592V584" stroke="#FF8C79" stroke-width="2" stroke-linecap="round" stroke-linejoin="round"/>
<path d="M445 578L441 574L437 578" stroke="#FF8C79" stroke-width="2" stroke-linecap="round" stroke-linejoin="round"/>
<path d="M441 574V587" stroke="#FF8C79" stroke-width="2" stroke-linecap="round" stroke-linejoin="round"/>
<rect x="58" y="749" width="650" height="215" rx="11" fill="white" stroke="#A3A8B2" stroke-width="2" stroke-dasharray="7 7"/>
<path d="M230.384 861.64H228.464L230.544 856.52L226.344 846.74H228.264L231.464 854.5L234.544 846.74H236.464L232.544 856.28L230.384 861.64ZM242.224 855.64C244.104 855.64 245.424 854.12 245.424 851.92C245.424 849.74 244.104 848.22 242.224 848.22C240.344 848.22 239.044 849.74 239.044 851.92C239.044 854.12 240.344 855.64 242.224 855.64ZM237.284 851.92C237.284 848.86 239.324 846.7 242.224 846.7C245.144 846.7 247.184 848.86 247.184 851.92C247.184 854.98 245.144 857.14 242.224 857.14C239.324 857.14 237.284 854.98 237.284 851.92ZM251.162 852.7C251.162 854.4 252.222 855.56 253.742 855.56C255.442 855.56 256.622 854.38 256.622 852.68V846.7H258.382V857.06H256.622V855.34C255.962 856.34 254.722 857.06 253.642 857.06C251.162 857.06 249.402 855.34 249.402 852.84V846.76H251.162V852.7ZM262.644 848.82C263.204 847.56 264.644 846.68 266.124 846.68V848.32C264.184 848.32 262.644 850.04 262.644 851.84V857.06H260.884V846.76H262.644V848.82ZM274.619 852.7C274.619 854.4 275.679 855.56 277.199 855.56C278.899 855.56 280.079 854.38 280.079 852.68V846.7H281.839V857.06H280.079V855.34C279.419 856.34 278.179 857.06 277.099 857.06C274.619 857.06 272.859 855.34 272.859 852.84V846.76H274.619V852.7ZM289.601 855.7C291.521 855.7 292.841 854.16 292.841 851.96C292.841 849.78 291.521 848.26 289.601 848.26C287.841 848.26 286.341 849.94 286.341 851.96C286.341 854.02 287.841 855.7 289.601 855.7ZM284.561 861.64V846.74H286.321V848.74C287.041 847.36 288.621 846.76 289.681 846.76C292.581 846.76 294.601 848.9 294.601 851.96C294.601 855.04 292.581 857.2 289.681 857.2C288.581 857.2 287.041 856.5 286.321 855.2V861.64H284.561ZM296.469 842.44H298.229V857.08H296.469V842.44ZM305.036 855.64C306.916 855.64 308.236 854.12 308.236 851.92C308.236 849.74 306.916 848.22 305.036 848.22C303.156 848.22 301.856 849.74 301.856 851.92C301.856 854.12 303.156 855.64 305.036 855.64ZM300.096 851.92C300.096 848.86 302.136 846.7 305.036 846.7C307.956 846.7 309.996 848.86 309.996 851.92C309.996 854.98 307.956 857.14 305.036 857.14C302.136 857.14 300.096 854.98 300.096 851.92ZM316.658 855.72C318.378 855.72 319.918 854.14 319.938 852.02C319.918 849.9 318.378 848.32 316.658 848.32C314.758 848.32 313.438 849.82 313.438 852.02C313.438 854.2 314.758 855.72 316.658 855.72ZM311.678 852.02C311.678 848.98 313.698 846.82 316.578 846.82C317.738 846.82 319.018 847.42 319.898 848.78V846.76H321.658V857.06H319.898V855.24C318.978 856.66 317.758 857.22 316.578 857.22C313.698 857.22 311.678 855.06 311.678 852.02ZM328.765 857.16C325.905 857.16 323.905 855.02 323.905 851.98C323.905 848.94 325.905 846.8 328.765 846.8C329.985 846.8 331.305 847.44 332.105 848.8V842.44H333.865V857H332.105V855.16C331.305 856.52 330.005 857.16 328.765 857.16ZM325.665 851.98C325.665 854.14 326.985 855.66 328.885 855.66C330.625 855.66 332.105 854 332.105 851.98C332.105 849.98 330.625 848.32 328.885 848.32C326.985 848.32 325.665 849.82 325.665 851.98ZM343.776 851.24C343.616 849.76 342.876 848.22 340.856 848.22C339.196 848.22 337.896 849.5 337.656 851.26L343.776 851.24ZM335.916 851.92C335.916 848.86 337.936 846.72 340.816 846.72C344.036 846.72 344.976 849.3 345.056 849.52C345.676 851.08 345.456 852.58 345.456 852.68H337.656C337.896 854.42 339.256 855.62 340.836 855.62C342.996 855.62 343.636 854.3 343.756 854.14L345.156 854.86C345.156 854.86 344.216 857.12 340.816 857.12C337.936 857.12 335.916 854.98 335.916 851.92ZM352.085 857.16C349.225 857.16 347.225 855.02 347.225 851.98C347.225 848.94 349.225 846.8 352.085 846.8C353.305 846.8 354.625 847.44 355.425 848.8V842.44H357.185V857H355.425V855.16C354.625 856.52 353.325 857.16 352.085 857.16ZM348.985 851.98C348.985 854.14 350.305 855.66 352.205 855.66C353.945 855.66 355.425 854 355.425 851.98C355.425 849.98 353.945 848.32 352.205 848.32C350.305 848.32 348.985 849.82 348.985 851.98ZM367.537 857.1H365.777V848.3H363.957V846.8H365.777V845.34C365.777 843.52 367.057 842.18 368.897 842.12C369.697 842.1 370.557 842.38 371.097 842.86L370.097 844.1C369.717 843.78 369.377 843.64 368.977 843.66C368.117 843.7 367.537 844.38 367.537 845.34V846.8H370.557V848.3H367.537V857.1ZM372.706 846.74H374.466V857.08H372.706V846.74ZM372.526 843.2C372.526 842.6 372.966 842.18 373.586 842.18C374.186 842.18 374.626 842.6 374.626 843.2C374.626 843.82 374.186 844.26 373.586 844.26C372.966 844.26 372.526 843.82 372.526 843.2ZM377.074 842.44H378.834V857.08H377.074V842.44ZM388.562 851.24C388.402 849.76 387.662 848.22 385.642 848.22C383.982 848.22 382.682 849.5 382.442 851.26L388.562 851.24ZM380.702 851.92C380.702 848.86 382.722 846.72 385.602 846.72C388.822 846.72 389.762 849.3 389.842 849.52C390.462 851.08 390.242 852.58 390.242 852.68H382.442C382.682 854.42 384.042 855.62 385.622 855.62C387.782 855.62 388.422 854.3 388.542 854.14L389.942 854.86C389.942 854.86 389.002 857.12 385.602 857.12C382.722 857.12 380.702 854.98 380.702 851.92ZM411.011 846.76L407.951 857.06H406.291L403.951 849.54L401.651 857.06H399.991L396.871 846.76H398.711L400.831 854.28L403.031 846.76H404.851L407.091 854.28L409.171 846.76H411.011ZM412.901 846.74H414.661V857.08H412.901V846.74ZM412.721 843.2C412.721 842.6 413.161 842.18 413.781 842.18C414.381 842.18 414.821 842.6 414.821 843.2C414.821 843.82 414.381 844.26 413.781 844.26C413.161 844.26 412.721 843.82 412.721 843.2ZM417.269 842.44H419.029V857.08H417.269V842.44ZM421.508 842.44H423.268V857.08H421.508V842.44ZM435.115 855.72C436.835 855.72 438.375 854.14 438.395 852.02C438.375 849.9 436.835 848.32 435.115 848.32C433.215 848.32 431.895 849.82 431.895 852.02C431.895 854.2 433.215 855.72 435.115 855.72ZM430.135 852.02C430.135 848.98 432.155 846.82 435.035 846.82C436.195 846.82 437.475 847.42 438.355 848.78V846.76H440.115V857.06H438.355V855.24C437.435 856.66 436.215 857.22 435.035 857.22C432.155 857.22 430.135 855.06 430.135 852.02ZM447.609 855.7C449.529 855.7 450.849 854.16 450.849 851.96C450.849 849.78 449.529 848.26 447.609 848.26C445.849 848.26 444.349 849.94 444.349 851.96C444.349 854.02 445.849 855.7 447.609 855.7ZM442.569 861.64V846.74H444.329V848.74C445.049 847.36 446.629 846.76 447.689 846.76C450.589 846.76 452.609 848.9 452.609 851.96C452.609 855.04 450.589 857.2 447.689 857.2C446.589 857.2 445.049 856.5 444.329 855.2V861.64H442.569ZM459.796 855.7C461.716 855.7 463.036 854.16 463.036 851.96C463.036 849.78 461.716 848.26 459.796 848.26C458.036 848.26 456.536 849.94 456.536 851.96C456.536 854.02 458.036 855.7 459.796 855.7ZM454.756 861.64V846.74H456.516V848.74C457.236 847.36 458.816 846.76 459.876 846.76C462.776 846.76 464.796 848.9 464.796 851.96C464.796 855.04 462.776 857.2 459.876 857.2C458.776 857.2 457.236 856.5 456.516 855.2V861.64H454.756ZM474.343 851.24C474.183 849.76 473.443 848.22 471.423 848.22C469.763 848.22 468.463 849.5 468.223 851.26L474.343 851.24ZM466.483 851.92C466.483 848.86 468.503 846.72 471.383 846.72C474.603 846.72 475.543 849.3 475.623 849.52C476.243 851.08 476.023 852.58 476.023 852.68H468.223C468.463 854.42 469.823 855.62 471.403 855.62C473.563 855.62 474.203 854.3 474.323 854.14L475.723 854.86C475.723 854.86 474.783 857.12 471.383 857.12C468.503 857.12 466.483 854.98 466.483 851.92ZM482.771 855.72C484.491 855.72 486.031 854.14 486.051 852.02C486.031 849.9 484.491 848.32 482.771 848.32C480.871 848.32 479.551 849.82 479.551 852.02C479.551 854.2 480.871 855.72 482.771 855.72ZM477.791 852.02C477.791 848.98 479.811 846.82 482.691 846.82C483.851 846.82 485.131 847.42 486.011 848.78V846.76H487.771V857.06H486.011V855.24C485.091 856.66 483.871 857.22 482.691 857.22C479.811 857.22 477.791 855.06 477.791 852.02ZM491.765 848.82C492.325 847.56 493.765 846.68 495.245 846.68V848.32C493.305 848.32 491.765 850.04 491.765 851.84V857.06H490.005V846.76H491.765V848.82ZM509.18 851.42C509.18 849.6 508.18 848.36 506.74 848.36C505.16 848.36 503.86 849.88 503.86 851.74V857.08H502.1V842.44H503.86V848.54C504.42 847.54 505.58 846.84 506.76 846.84C509.2 846.84 510.94 848.66 510.94 851.26V857.08H509.18V851.42ZM521.081 851.24C520.921 849.76 520.181 848.22 518.161 848.22C516.501 848.22 515.201 849.5 514.961 851.26L521.081 851.24ZM513.221 851.92C513.221 848.86 515.241 846.72 518.121 846.72C521.341 846.72 522.281 849.3 522.361 849.52C522.981 851.08 522.761 852.58 522.761 852.68H514.961C515.201 854.42 516.561 855.62 518.141 855.62C520.301 855.62 520.941 854.3 521.061 854.14L522.461 854.86C522.461 854.86 521.521 857.12 518.121 857.12C515.241 857.12 513.221 854.98 513.221 851.92ZM526.531 848.82C527.091 847.56 528.531 846.68 530.011 846.68V848.32C528.071 848.32 526.531 850.04 526.531 851.84V857.06H524.771V846.76H526.531V848.82ZM538.816 851.24C538.656 849.76 537.916 848.22 535.896 848.22C534.236 848.22 532.936 849.5 532.696 851.26L538.816 851.24ZM530.956 851.92C530.956 848.86 532.976 846.72 535.856 846.72C539.076 846.72 540.016 849.3 540.096 849.52C540.716 851.08 540.496 852.58 540.496 852.68H532.696C532.936 854.42 534.296 855.62 535.876 855.62C538.036 855.62 538.676 854.3 538.796 854.14L540.196 854.86C540.196 854.86 539.256 857.12 535.856 857.12C532.976 857.12 530.956 854.98 530.956 851.92Z" fill="#55575B"/>
<path d="M1403 42L1380 65" stroke="#55575B" stroke-width="3" stroke-linecap="round" stroke-linejoin="round"/>
<path d="M1380 42L1403 65" stroke="#55575B" stroke-width="3" stroke-linecap="round" stroke-linejoin="round"/>
</svg>
