<svg width="199" height="72" viewBox="0 0 199 72" fill="none" xmlns="http://www.w3.org/2000/svg">
<rect width="199" height="72" rx="36" fill="#303B59"/>
<path d="M31.672 41.108C32.8 42.452 34.48 43.412 35.944 43.412C38.128 43.412 39.664 42.26 39.664 40.604C39.664 37.1 30.112 38.948 30.112 32.732C30.112 29.828 32.632 27.788 36.184 27.788C38.272 27.788 40.48 28.892 41.8 30.5L39.688 32.18C38.776 31.052 37.432 30.26 36.184 30.26C34.312 30.26 32.992 31.292 32.992 32.732C32.992 36.308 42.544 34.748 42.544 40.604C42.544 43.7 39.808 45.884 35.944 45.884C33.592 45.884 31.048 44.636 29.536 42.812L31.672 41.108ZM53.8848 38.348C53.6688 36.932 52.7328 35.372 50.6928 35.372C48.8928 35.372 47.5248 36.716 47.2368 38.348H53.8848ZM44.5488 39.428C44.5488 35.66 47.0688 33.02 50.6688 33.02C54.6528 33.02 55.9008 36.284 55.9728 36.452C56.7408 38.18 56.5008 40.148 56.5008 40.46H47.2368C47.5248 42.236 49.0848 43.436 50.6928 43.436C52.9488 43.436 53.6448 42.116 53.7168 42.02L56.0448 43.004C56.0448 43.004 54.8688 45.812 50.6688 45.812C47.0688 45.812 44.5488 43.196 44.5488 39.428ZM58.6169 27.74H61.4969V45.812H58.6169V27.74ZM72.7988 38.348C72.5828 36.932 71.6468 35.372 69.6068 35.372C67.8068 35.372 66.4388 36.716 66.1508 38.348H72.7988ZM63.4628 39.428C63.4628 35.66 65.9828 33.02 69.5828 33.02C73.5668 33.02 74.8148 36.284 74.8868 36.452C75.6548 38.18 75.4148 40.148 75.4148 40.46H66.1508C66.4388 42.236 67.9988 43.436 69.6068 43.436C71.8628 43.436 72.5588 42.116 72.6308 42.02L74.9588 43.004C74.9588 43.004 73.7828 45.812 69.5828 45.812C65.9828 45.812 63.4628 43.196 63.4628 39.428ZM83.2876 43.148C84.1996 43.148 85.2796 42.644 86.0236 41.9L87.9436 43.892C86.8156 45.044 84.9436 45.836 83.3836 45.836C79.5916 45.836 76.9276 43.172 76.9276 39.428C76.9276 35.66 79.5916 33.02 83.3836 33.02C85.0636 33.02 86.7916 33.788 87.9436 34.964L86.0236 36.932C85.2796 36.188 84.1996 35.708 83.2876 35.708C81.1996 35.708 79.8076 37.196 79.8076 39.428C79.8076 41.66 81.1996 43.148 83.2876 43.148ZM97.4275 45.14C96.8275 45.404 96.2995 45.716 94.9075 45.716C92.6755 45.716 91.1155 44.06 91.1155 41.684V35.54H88.8835V33.212H91.1155V29.468H93.9955V33.212H97.1875V35.54H93.9955V41.684C93.9955 42.548 94.4755 43.196 95.1715 43.22C95.7955 43.268 96.4675 42.884 96.5155 42.86L97.4275 45.14ZM118.166 27.908V30.404H108.59V35.564H116.654V38.036H108.59V45.764H105.71V27.908H118.166ZM120.619 32.996H123.499V45.812H120.619V32.996ZM120.499 28.676C120.499 27.764 121.147 27.116 122.059 27.116C122.971 27.116 123.643 27.764 123.643 28.676C123.643 29.612 122.971 30.26 122.059 30.26C121.147 30.26 120.499 29.612 120.499 28.676ZM126.445 27.74H129.325V45.812H126.445V27.74ZM140.627 38.348C140.411 36.932 139.475 35.372 137.435 35.372C135.635 35.372 134.267 36.716 133.979 38.348H140.627ZM131.291 39.428C131.291 35.66 133.811 33.02 137.411 33.02C141.395 33.02 142.643 36.284 142.715 36.452C143.483 38.18 143.243 40.148 143.243 40.46H133.979C134.267 42.236 135.827 43.436 137.435 43.436C139.691 43.436 140.387 42.116 140.459 42.02L142.787 43.004C142.787 43.004 141.611 45.812 137.411 45.812C133.811 45.812 131.291 43.196 131.291 39.428Z" fill="white"/>
<path d="M155 35V43C155 43.5304 155.211 44.0391 155.586 44.4142C155.961 44.7893 156.47 45 157 45H169C169.53 45 170.039 44.7893 170.414 44.4142C170.789 44.0391 171 43.5304 171 43V35" stroke="#FF8C79" stroke-width="2" stroke-linecap="round" stroke-linejoin="round"/>
<path d="M167 29L163 25L159 29" stroke="#FF8C79" stroke-width="2" stroke-linecap="round" stroke-linejoin="round"/>
<path d="M163 25V38" stroke="#FF8C79" stroke-width="2" stroke-linecap="round" stroke-linejoin="round"/>
</svg>
