<svg width="130" height="130" viewBox="0 0 130 130" fill="none" xmlns="http://www.w3.org/2000/svg">
<circle cx="65" cy="65" r="65" fill="#FF8C79"/>
<path d="M66 64V84" stroke="#303B59" stroke-width="4" stroke-linecap="round" stroke-linejoin="round"/>
<path d="M84.3132 78C86.441 76.8597 88.1219 75.0552 89.0906 72.8715C90.0594 70.6877 90.2607 68.249 89.663 65.9403C89.0652 63.6316 87.7023 61.5842 85.7894 60.1215C83.8765 58.6587 81.5226 57.8639 79.0991 57.8623H76.3503C75.6899 55.3515 74.4592 53.0205 72.7505 51.0446C71.0418 49.0687 68.8997 47.4993 66.4852 46.4544C64.0707 45.4094 61.4467 44.9161 58.8103 45.0116C56.174 45.1071 53.594 45.7889 51.2643 47.0056C48.9345 48.2224 46.9157 49.9425 45.3596 52.0367C43.8035 54.1308 42.7505 56.5445 42.2799 59.0963C41.8093 61.648 41.9333 64.2715 42.6426 66.7693C43.3518 69.2672 44.6279 71.5745 46.3749 73.5178" stroke="#303B59" stroke-width="4" stroke-linecap="round" stroke-linejoin="round"/>
<path d="M75 73L66 64L57 73" stroke="#303B59" stroke-width="4" stroke-linecap="round" stroke-linejoin="round"/>
</svg>
