<svg width="21" height="20" viewBox="0 0 21 20" fill="none" xmlns="http://www.w3.org/2000/svg">
<path d="M19.3512 2.38335C18.8541 1.87016 18.2639 1.46305 17.6143 1.1853C16.9646 0.907548 16.2683 0.764587 15.5651 0.764587C14.862 0.764587 14.1657 0.907548 13.516 1.1853C12.8664 1.46305 12.2762 1.87016 11.779 2.38335L10.7473 3.44792L9.71566 2.38335C8.71152 1.34722 7.34962 0.765124 5.92956 0.765124C4.50949 0.765124 3.14759 1.34722 2.14345 2.38335C1.13931 3.41949 0.575195 4.82479 0.575195 6.29011C0.575195 7.75542 1.13931 9.16073 2.14345 10.1969L3.17514 11.2614L10.7473 19.0749L18.3196 11.2614L19.3512 10.1969C19.8486 9.68391 20.2431 9.07486 20.5123 8.40453C20.7815 7.7342 20.92 7.01571 20.92 6.29011C20.92 5.56451 20.7815 4.84602 20.5123 4.17569C20.2431 3.50535 19.8486 2.89631 19.3512 2.38335Z" fill="#999A9C"/>
</svg>
