<svg width="21" height="20" viewBox="0 0 21 20" fill="none" xmlns="http://www.w3.org/2000/svg">
<path d="M18.9003 2.38335C18.4032 1.87016 17.813 1.46305 17.1633 1.1853C16.5137 0.907548 15.8174 0.764587 15.1142 0.764587C14.411 0.764587 13.7147 0.907548 13.0651 1.1853C12.4155 1.46305 11.8252 1.87016 11.3281 2.38335L10.2964 3.44792L9.26473 2.38335C8.26059 1.34722 6.89869 0.765124 5.47863 0.765124C4.05856 0.765124 2.69666 1.34722 1.69252 2.38335C0.688386 3.41949 0.124268 4.82479 0.124268 6.29011C0.124268 7.75542 0.688386 9.16073 1.69252 10.1969L2.72421 11.2614L10.2964 19.0749L17.8686 11.2614L18.9003 10.1969C19.3977 9.68391 19.7922 9.07486 20.0614 8.40453C20.3305 7.7342 20.4691 7.01571 20.4691 6.29011C20.4691 5.56451 20.3305 4.84602 20.0614 4.17569C19.7922 3.50535 19.3977 2.89631 18.9003 2.38335Z" fill="#999A9C"/>
</svg>
