<svg width="20" height="19" viewBox="0 0 20 19" fill="none" xmlns="http://www.w3.org/2000/svg">
<path d="M17.612 2.91452C17.1722 2.46607 16.65 2.11034 16.0752 1.86763C15.5005 1.62492 14.8844 1.5 14.2623 1.5C13.6401 1.5 13.0241 1.62492 12.4493 1.86763C11.8746 2.11034 11.3524 2.46607 10.9126 2.91452L9.99977 3.84476L9.08699 2.91452C8.19858 2.00912 6.99364 1.50047 5.73725 1.50047C4.48085 1.50047 3.27591 2.00912 2.38751 2.91452C1.4991 3.81992 1 5.0479 1 6.32833C1 7.60875 1.4991 8.83674 2.38751 9.74214L3.30029 10.6724L9.99977 17.5L16.6992 10.6724L17.612 9.74214C18.0521 9.29391 18.4011 8.76171 18.6393 8.17596C18.8774 7.5902 19 6.96237 19 6.32833C19 5.69428 18.8774 5.06645 18.6393 4.4807C18.4011 3.89494 18.0521 3.36275 17.612 2.91452Z" stroke="#797C82" stroke-width="2" stroke-linecap="round" stroke-linejoin="round"/>
</svg>
