<svg width="208" height="84" viewBox="0 0 208 84" fill="none" xmlns="http://www.w3.org/2000/svg">
<path d="M21.9968 45.8656L15.515 70H1.72389L14.653 21.7311H28.4441L39.2357 45.8656L45.683 21.7311H59.4741L46.545 70H32.7539L21.9968 45.8656Z" fill="#303B59"/>
<path d="M119.764 45.8656L113.282 70H99.4913L112.42 21.7311H126.212L137.003 45.8656L143.45 21.7311H157.242L144.312 70H130.521L119.764 45.8656Z" fill="#303B59"/>
<path d="M149.12 70.6105L153.132 56.9699C160.354 56.9699 161.156 56.9699 165.168 52.1555C167.493 49.366 172.122 31.2933 173.995 22.467H208L203.929 35.3053H184.426C181.216 67.401 159.552 72.2153 149.12 70.6105Z" fill="#303B59"/>
<path d="M181.352 70.6105L188.642 42.5623H202.141L194.332 70.6105H181.352Z" fill="#303B59"/>
<path d="M92.2727 64.346C104.577 54.1749 108.607 37.4349 99.9021 26.905C91.1977 16.3752 73.9985 17.1839 61.6944 27.355C49.3903 37.5261 45.3605 54.2661 54.0649 64.796C62.7693 75.3258 79.9686 74.5171 92.2727 64.346Z" fill="#FF7660" stroke="white" stroke-width="4.01196"/>
<path d="M76.1028 20.8621C75.7291 30.7931 79.4058 45.507 104.187 44.1309" stroke="white" stroke-width="2.40717"/>
<path d="M53.8865 38.0934C53.3759 50.642 58.0322 69.2204 89.7434 67.4008" stroke="white" stroke-width="2.40717"/>
<path d="M67.2765 24.0718C58.4197 41.9623 78.5098 63.3864 100.174 55.3622" stroke="white" stroke-width="2.40717"/>
</svg>
