<svg width="21" height="20" viewBox="0 0 21 20" fill="none" xmlns="http://www.w3.org/2000/svg">
<path d="M18.9006 2.38342C18.4034 1.87022 17.8132 1.46312 17.1636 1.18536C16.514 0.907609 15.8177 0.764648 15.1145 0.764648C14.4113 0.764648 13.715 0.907609 13.0653 1.18536C12.4157 1.46312 11.8255 1.87022 11.3284 2.38342L10.2967 3.44798L9.26498 2.38342C8.26084 1.34728 6.89894 0.765186 5.47887 0.765186C4.05881 0.765186 2.6969 1.34728 1.69277 2.38342C0.68863 3.41955 0.124512 4.82485 0.124512 6.29017C0.124512 7.75549 0.68863 9.16079 1.69277 10.1969L2.72446 11.2615L10.2967 19.075L17.8689 11.2615L18.9006 10.1969C19.3979 9.68397 19.7924 9.07493 20.0616 8.40459C20.3308 7.73426 20.4693 7.01577 20.4693 6.29017C20.4693 5.56457 20.3308 4.84608 20.0616 4.17575C19.7924 3.50541 19.3979 2.89637 18.9006 2.38342Z" fill="#999A9C"/>
</svg>
